<?xml version="1.0" encoding="utf-8"?>
<!-- Generator: Adobe Illustrator 21.0.0, SVG Export Plug-In . SVG Version: 6.00 Build 0)  -->
<svg version="1.1" id="Layer_1" xmlns="http://www.w3.org/2000/svg" xmlns:xlink="http://www.w3.org/1999/xlink" x="0px" y="0px"
	 viewBox="0 0 200 200" style="enable-background:new 0 0 200 200;" xml:space="preserve">
<style type="text/css">
	.st0{fill:#FFFFFF;}
	.st1{fill:#1A1A1A;}
	.st2{fill:none;}
</style>
<g transform="translate(2552.733 -1583.846)">
	<polygon class="st0" points="-2419.1,1626.8 -2417.9,1626.4 -2415.3,1634.4 -2416.5,1634.8 	"/>
	<path class="st1" d="M-2416.5,1634.8c-0.3-0.5-0.6-1.2-0.8-1.8c-0.3-0.6-0.5-1.3-0.7-2s-0.4-1.4-0.6-2.1c-0.2-0.7-0.4-1.4-0.6-2.1
		v-0.1h0.1c0.4-0.1,0.8-0.3,1.2-0.5l0.2-0.1l0.1,0.2c0.3,0.6,0.6,1.3,0.8,1.9c0.2,0.7,0.5,1.3,0.7,2c0.1,0.3,0.2,0.7,0.3,1
		s0.2,0.7,0.3,1c0.2,0.7,0.3,1.4,0.5,2v0.2h-0.2C-2415.7,1634.7-2416.1,1634.8-2416.5,1634.8z M-2416.5,1634.8
		c0.4-0.2,0.8-0.4,1.1-0.6l-0.1,0.3c-0.3-0.6-0.6-1.3-0.8-1.9c-0.1-0.3-0.3-0.7-0.4-1c-0.1-0.3-0.2-0.7-0.3-1
		c-0.2-0.7-0.4-1.3-0.6-2c-0.2-0.7-0.4-1.4-0.5-2l0.3,0.1c-0.4,0.1-0.8,0.2-1.2,0.3l0.1-0.2c0.2,0.7,0.4,1.3,0.7,1.9
		s0.5,1.2,0.8,1.9c0.2,0.6,0.4,1.3,0.6,2C-2416.8,1633.2-2416.6,1634-2416.5,1634.8L-2416.5,1634.8z"/>
	<polygon class="st0" points="-2417.8,1632.8 -2415.4,1632 -2412.8,1639.9 -2415.2,1640.7 	"/>
	<path class="st1" d="M-2415.2,1640.7c-0.6-1.2-1.1-2.5-1.5-3.7c-0.2-0.7-0.4-1.4-0.6-2.1c-0.2-0.7-0.3-1.4-0.5-2.1v-0.1h0.1
		c0.4-0.1,0.8-0.3,1.2-0.4s0.8-0.3,1.2-0.5l0.2-0.1l0.1,0.2c0.3,0.6,0.5,1.3,0.8,1.9l0.7,1.9c0.5,1.3,0.8,2.6,1.2,4l0.1,0.3
		l-0.3,0.1c-0.4,0.1-0.9,0.2-1.3,0.3L-2415.2,1640.7z M-2415.2,1640.6l0.6-0.3l0.6-0.3c0.4-0.2,0.7-0.3,1.1-0.5l-0.2,0.4
		c-0.5-1.3-1-2.6-1.4-3.9l-0.6-2c-0.2-0.7-0.3-1.3-0.5-2l0.3,0.1c-0.4,0.1-0.8,0.2-1.2,0.3c-0.4,0.1-0.8,0.2-1.2,0.4l0.1-0.2
		c0.2,0.6,0.5,1.3,0.8,1.9s0.5,1.2,0.7,1.9C-2415.8,1637.8-2415.5,1639.1-2415.2,1640.6L-2415.2,1640.6z"/>
	<ellipse class="st0" cx="-2420.4" cy="1620.7" rx="7.7" ry="7.7"/>
	<path class="st1" d="M-2418.1,1628c1-0.3,1.8-0.8,2.6-1.5c0.7-0.7,1.3-1.5,1.7-2.4c0.8-1.8,0.9-3.8,0.4-5.6
		c-0.5-1.9-1.8-3.5-3.6-4.4c-0.9-0.5-1.8-0.7-2.8-0.8c-1-0.1-2,0.1-2.9,0.4c-1.8,0.7-3.3,2-4.2,3.8c-0.8,1.7-1,3.7-0.4,5.5
		s1.9,3.4,3.5,4.3c0.9,0.5,1.8,0.8,2.8,0.9C-2420,1628.4-2419,1628.3-2418.1,1628z M-2418,1628c-2,0.7-4.1,0.6-6-0.2
		c-1-0.4-1.8-1-2.5-1.8s-1.2-1.7-1.6-2.7c-0.3-1-0.5-2.1-0.4-3.1c0.1-1.1,0.4-2.1,0.9-3c1-1.9,2.7-3.3,4.7-3.9s4.1-0.4,6,0.5
		c0.9,0.4,1.8,1.1,2.5,1.8c0.7,0.8,1.3,1.7,1.6,2.6c0.7,2,0.5,4.2-0.5,6.1C-2414.4,1626.1-2416.1,1627.4-2418,1628L-2418,1628z"/>
	<ellipse class="st0" cx="-2420.4" cy="1620.7" rx="6.1" ry="6.1"/>
	<path class="st1" d="M-2418.5,1626.5c0.8-0.2,1.4-0.7,2-1.2s1-1.2,1.3-1.9c0.6-1.4,0.7-3,0.3-4.4c-0.4-1.5-1.4-2.8-2.8-3.5
		c-0.7-0.4-1.5-0.6-2.2-0.6c-0.8,0-1.6,0.1-2.3,0.4c-1.4,0.5-2.6,1.6-3.3,3c-0.6,1.4-0.7,2.9-0.3,4.3c0.5,1.4,1.4,2.7,2.7,3.4
		c0.7,0.4,1.4,0.7,2.2,0.8C-2420.1,1626.8-2419.3,1626.7-2418.5,1626.5z M-2418.5,1626.5c-1.6,0.5-3.3,0.5-4.8-0.2
		c-0.8-0.3-1.5-0.8-2-1.5c-0.6-0.6-1-1.4-1.3-2.2c-0.3-0.8-0.4-1.7-0.3-2.5c0.1-0.8,0.3-1.7,0.7-2.4c0.8-1.5,2.2-2.6,3.8-3.1
		c1.6-0.4,3.3-0.3,4.8,0.5c0.7,0.4,1.4,0.8,2,1.4s1,1.3,1.3,2.1c0.6,1.6,0.4,3.4-0.5,4.9C-2415.6,1625-2416.9,1626-2418.5,1626.5
		L-2418.5,1626.5z"/>
	<path class="st0" d="M-2524.9,1683.7l170.1,27.4l-193.2,55l55.1-51.7L-2524.9,1683.7z"/>
	<path class="st1" d="M-2525.1,1683.6l84.7,12.8c14.3,2.2,28.6,4.4,42.9,6.8l42.7,7.3l2,0.4l-2,0.6l-12.1,3.4l-12.1,3.4l-24.1,7
		l-48.2,14.2l-24.1,7l-24.1,7l-24.1,7l-24.2,6.9l-5,1.4l3.8-3.5l13.8-12.9l13.8-12.8l13.9-12.8c4.6-4.3,9.2-8.5,13.9-12.8v1.1
		l-8-7.9l-7.9-7.9C-2514.7,1693.9-2519.9,1688.7-2525.1,1683.6z M-2524.8,1683.8c5.5,5.2,10.9,10.3,16.3,15.2l8,7.5l8,7.5l0.6,0.5
		l-0.6,0.6c-4.5,4.4-9.1,8.7-13.6,13.1l-13.7,13l-13.7,13l-13.7,13l-1.2-2.1l24.2-6.9l24.2-6.8l24.2-6.8l24.2-6.7l48.4-13.3
		l24.2-6.8l12.1-3.5l12-3.5l0.1,0.9l-42.3-6.4c-14.1-2.2-28.1-4.5-42.2-6.9L-2524.8,1683.8z"/>
	<line class="st2" x1="-2493" y1="1714.4" x2="-2370.4" y2="1712.5"/>
	<path class="st1" d="M-2493,1714.3l3.8-0.3l3.8-0.2l7.7-0.5l7.7-0.4c2.6-0.1,5.1-0.2,7.7-0.3c5.1-0.2,10.2-0.3,15.3-0.5l15.3-0.3
		l15.3-0.2c5.1,0,10.2,0,15.3,0s10.2,0.1,15.3,0.2l7.7,0.2l3.8,0.1l3.8,0.2v0.2l-61.3,1.1l-61.3,0.9L-2493,1714.3L-2493,1714.3z"/>
	<path class="st1" d="M-2354.9,1711.1l-136.9,57.7l-3.9-17.7L-2354.9,1711.1z"/>
	<path class="st0" d="M-2418.2,1714.2c0.5,3.1,2.7,5.5,5.7,6.3c0,0,4.4,1.1,4.5,3.3h-14.3c0,0,1.5-6.1-0.7-9.5L-2418.2,1714.2z"/>
	<path class="st1" d="M-2418.2,1714.1l0.1,0.5c0.1,0.1,0.1,0.3,0.1,0.4c0.1,0.3,0.2,0.6,0.4,0.8c0.3,0.5,0.6,1,1,1.5
		c0.7,0.9,1.7,1.7,2.8,2.2c0.3,0.1,0.5,0.2,0.8,0.3c0.3,0.1,0.5,0.2,0.9,0.3c0.6,0.2,1.2,0.4,1.8,0.7c0.6,0.3,1.1,0.7,1.6,1.1
		c0.5,0.5,0.8,1.1,0.9,1.8l0,0c0,0.1-0.1,0.2-0.2,0.2l0,0c-1.2-0.1-2.4-0.1-3.6-0.1c-1.2,0-2.4,0.1-3.6,0.1c-1.2,0-2.4,0.1-3.6,0.1
		c-1.2,0-2.4,0-3.6,0.1c-0.3,0-0.5-0.2-0.5-0.5l0,0l0,0v-0.1l0,0c0.2-0.8,0.3-1.6,0.3-2.3c0.1-0.8,0.1-1.6,0.1-2.4s-0.1-1.6-0.2-2.3
		c-0.1-0.8-0.4-1.5-0.7-2.2l0,0c-0.1-0.2,0-0.4,0.1-0.5l0,0c0.1,0,0.1,0,0.2,0h2.5L-2418.2,1714.1z M-2418.3,1714.2l-2.5,0.3
		l-2.3,0.2l0.3-0.5c0.5,0.7,0.8,1.5,1,2.3s0.3,1.6,0.3,2.5c0,0.8,0,1.7-0.1,2.5s-0.2,1.6-0.4,2.5l-0.5-0.6c1.2,0,2.4,0,3.6,0.1
		c1.2,0,2.4,0.1,3.6,0.1c1.2,0.1,2.4,0.1,3.6,0.1c1.2,0,2.4,0,3.6-0.1l-0.2,0.2c-0.1-0.6-0.4-1-0.9-1.4s-1-0.6-1.5-0.9
		c-0.5-0.2-1.1-0.4-1.7-0.6c-0.3-0.1-0.6-0.2-0.9-0.3c-0.3-0.1-0.6-0.2-0.9-0.4c-1.2-0.6-2.2-1.5-2.9-2.5c-0.4-0.5-0.6-1.1-0.8-1.7
		c-0.1-0.3-0.2-0.6-0.2-0.9c0-0.2-0.1-0.3-0.1-0.5v-0.2L-2418.3,1714.2L-2418.3,1714.2L-2418.3,1714.2z"/>
	<path class="st1" d="M-2422,1717.6h5.2c1.1,1.4,2.6,2.4,4.3,2.9c0,0,4.4,1.1,4.5,3.3h-14.3C-2422,1721.8-2421.8,1719.7-2422,1717.6
		z"/>
	<path class="st1" d="M-2460.3,1605.9c-0.7-0.2-1.5-0.2-2.1,0.2c0,0-3.9,1.2-4.1,2.3c0,0,0.9,0.1,3.6-1.1
		C-2463,1607.3-2460.7,1606.6-2460.3,1605.9z"/>
	<path class="st0" d="M-2459.9,1620.1l-5-14l-4.2-6.8c0,0,0-1.3,2.5,2.4c0,0,1.4,1.2,1.5,0.3l0.2-1.4c0.1-0.7,0.4-0.6,0.4-0.6
		c0.4,0,0.3,2.7,0.3,2.7c0.4,0.6,0.6,1.2,0.6,1.9c0.2,0.9,0.6,1.8,1.2,2.5c0,0,4.6,5.9,5.4,11.4"/>
	<path class="st1" d="M-2460,1620.1c-0.3-0.6-0.5-1.1-0.8-1.7l-0.7-1.7c-0.5-1.1-0.9-2.3-1.4-3.5c-0.4-1.2-0.9-2.3-1.3-3.5
		s-0.8-2.4-1.2-3.5v0.1c-1.4-2.3-2.7-4.6-4.1-6.9v-0.1v-0.1c0-0.1,0-0.1,0.1-0.2c0-0.1,0.1-0.2,0.2-0.2c0.1,0,0.3,0,0.4,0
		c0.2,0.1,0.3,0.2,0.4,0.3c0.2,0.2,0.5,0.5,0.7,0.8c0.4,0.5,0.8,1.1,1.1,1.6l0,0c0.2,0.2,0.4,0.3,0.6,0.4c0.2,0.1,0.4,0.2,0.6,0.2
		c0.1,0,0.1,0,0.1-0.1l0.1-0.3l0.1-0.7l0.1-0.4c0-0.1,0-0.3,0.1-0.4c0.1-0.2,0.2-0.3,0.3-0.3h0.1c0.1,0,0.1,0,0.2,0.1
		c0,0.1,0.1,0.1,0.1,0.2c0.1,0.5,0.2,1,0.2,1.5v0.7v0.2v0.1l0,0c0-0.1,0,0,0,0l0,0c0.1,0.1,0.2,0.2,0.2,0.3c0.2,0.5,0.3,0.9,0.4,1.4
		c0.2,0.9,0.6,1.8,1.2,2.5l0,0c0.7,0.8,1.3,1.7,1.9,2.6c0.6,0.9,1.1,1.8,1.6,2.8s0.9,2,1.2,3s0.5,2.1,0.6,3.2h-0.1c-0.3-1-0.6-2-1-3
		s-0.9-1.9-1.3-2.8c-0.5-0.9-1-1.8-1.5-2.7s-1-1.8-1.6-2.7l0,0c-0.3-0.4-0.5-0.8-0.8-1.3c-0.2-0.5-0.4-1-0.4-1.5
		c-0.1-0.5-0.2-0.9-0.4-1.4c0-0.1-0.1-0.2-0.2-0.3l0,0c0,0,0,0,0-0.1c0,0,0,0,0-0.1v-0.3v-0.7c0-0.5,0-0.9-0.1-1.4
		c0,0,0-0.1-0.1-0.1l0,0l0,0c-0.1,0-0.1,0.1-0.2,0.2c-0.1,0.2-0.1,0.4-0.1,0.7l-0.1,0.7l-0.1,0.4c0,0.2-0.2,0.3-0.3,0.4
		c-0.3,0-0.6-0.1-0.8-0.2s-0.4-0.3-0.6-0.4l0,0l0,0c-0.4-0.5-0.8-1.1-1.2-1.5c-0.2-0.2-0.4-0.5-0.6-0.7c-0.1-0.1-0.2-0.2-0.3-0.2
		h-0.1l0,0l0,0v-0.1c1.4,2.2,2.9,4.5,4.3,6.7l0,0l0,0c0.5,1.1,0.9,2.3,1.3,3.5c0.4,1.2,0.9,2.3,1.2,3.5c0.4,1.2,0.8,2.4,1.1,3.6
		l0.5,1.8C-2460.2,1618.9-2460,1619.5-2460,1620.1L-2460,1620.1z"/>
	<path class="st0" d="M-2444.5,1641.9c-3.2-1.2-6.2-2.7-9.1-4.6c-2.8-1.9-4.8-4.9-5.6-8.2c-0.6-3.2,0.3-6.8-1.3-9.6
		c-1-1.7-2.7-2.8-4-4.4c-1.5-1.9-2.3-4.3-2-6.7c2.2-0.3,4.4-1.1,6.2-2.5c0,0,5.3,8.3,6.2,14.8c1.8,5.3,5,10,9.3,13.6"/>
	<path class="st1" d="M-2444.5,1642c-3.5-1.1-6.8-2.7-9.8-4.8c-1.5-1.1-2.8-2.5-3.8-4c-1-1.6-1.7-3.4-1.8-5.3
		c-0.2-1.9,0-3.7-0.3-5.4c-0.1-0.8-0.3-1.6-0.7-2.4c-0.4-0.7-0.9-1.4-1.5-2s-1.3-1.2-2-1.9c-0.7-0.7-1.3-1.5-1.7-2.3
		c-0.9-1.7-1.3-3.7-1.1-5.6l0.1-0.5l0.5-0.1c0.5-0.1,1.1-0.2,1.6-0.3s1-0.3,1.6-0.5c0.5-0.2,1-0.4,1.5-0.6s0.9-0.5,1.3-0.8l0.5-0.4
		l0.3,0.6c0.7,1.2,1.4,2.4,2,3.6s1.2,2.4,1.8,3.7c0.6,1.3,1,2.5,1.4,3.8s0.7,2.7,0.9,4v-0.1c0.4,1.3,0.9,2.6,1.5,3.8
		c0.6,1.2,1.3,2.4,2,3.6c1.5,2.3,3.3,4.4,5.4,6.3v0.1c-2.1-1.8-4-3.8-5.6-6.1c-0.8-1.1-1.5-2.3-2.1-3.6c-0.6-1.2-1.2-2.5-1.6-3.9
		l0,0c-0.5-2.7-1.3-5.2-2.4-7.7c-1.1-2.5-2.4-4.8-3.8-7.1h0.1c-0.5,0.3-0.9,0.6-1.4,0.9s-1,0.5-1.5,0.7s-1.1,0.4-1.6,0.5
		s-1.1,0.3-1.7,0.4l0.1-0.1c-0.2,1.8,0.2,3.6,1,5.2c0.4,0.8,1,1.5,1.6,2.2c0.6,0.6,1.3,1.2,1.9,1.9c0.7,0.6,1.2,1.4,1.6,2.2
		c0.4,0.8,0.6,1.7,0.7,2.6c0.2,1.8,0.1,3.6,0.2,5.4c0.1,1.8,0.7,3.5,1.7,5.1c1,1.5,2.2,2.9,3.6,4
		C-2451.1,1639-2447.9,1640.7-2444.5,1642L-2444.5,1642z"/>
	<path class="st1" d="M-2451.5,1656.3c0,0,0.3,2.3,4.3,2.7l0.8-2.9L-2451.5,1656.3z"/>
	<path class="st0" d="M-2444.7,1620.7c0,0,3.3,3.7,1.5,7c0,0-0.5,0.8-2.2,0.5c0.2,1.3,0.7,2.6,1.4,3.7l-5.6-0.3
		c0.6-1.3,0.8-2.8,0.5-4.3c-1.1-1.2-1.7-2.9-1.6-4.5c0,0,0.7-2.6,2.8-3C-2446.8,1619.7-2445.7,1620.1-2444.7,1620.7z"/>
	<path class="st1" d="M-2447.9,1620.2c1,0,1.9,0.3,2.8,0.8c0.3,0.3,3,3.6,1.4,6.4c-0.3,0.3-0.7,0.4-1.1,0.3c-0.2,0-0.4,0-0.7-0.1
		l-0.6-0.1l0.1,0.6c0.2,1.1,0.5,2.1,1,3.1l-4-0.2c0.4-1.3,0.5-2.6,0.3-3.9v-0.2l-0.1-0.1c-1-1.1-1.5-2.6-1.4-4.1
		C-2450.1,1622.6-2449.5,1620.5-2447.9,1620.2 M-2447.9,1619.7c-2.1,0.4-2.8,3-2.8,3c-0.1,1.7,0.5,3.3,1.6,4.5
		c0.3,1.4,0.1,2.9-0.5,4.3l5.6,0.3c-0.7-1.1-1.2-2.4-1.4-3.7c0.2,0,0.5,0.1,0.7,0.1c1.1,0,1.5-0.5,1.5-0.5c1.8-3.2-1.5-7-1.5-7
		C-2445.7,1620.1-2446.8,1619.7-2447.9,1619.7L-2447.9,1619.7z"/>
	<path class="st0" d="M-2436.6,1655.3l8.3,22c0,0,1.6,4.5-2.9,9.1l-28.4,29.9l-8.2-8.6v-0.1c2.6-2.1,4.6-4.8,5.7-8
		c0.6-1.6,1-3.4,2.1-4.8c1.4-1.6,3.5-2.2,5.4-3.1c2.1-1,4.1-2.4,5.7-4.1c0,0-0.8-25.5,2.9-32.4L-2436.6,1655.3L-2436.6,1655.3z"/>
	<path class="st1" d="M-2436.5,1655.3l7,17.3l1.7,4.4c0.2,0.4,0.3,0.8,0.3,1.2c0.1,0.4,0.1,0.8,0.1,1.2c0,0.8-0.1,1.6-0.3,2.4
		s-0.5,1.6-0.9,2.3c-0.4,0.7-0.9,1.4-1.4,2s-1.1,1.2-1.6,1.8l-1.6,1.7c-4.2,4.6-8.5,9.1-12.8,13.6l-12.9,13.6l-0.6,0.6l-0.6-0.6
		c-1.4-1.4-2.7-2.8-4.1-4.3l-4.1-4.3l-0.3-0.3l0.1-0.4v-0.1l0.1-0.3l0.2-0.2c1.8-1.4,3.3-3.2,4.4-5.2c0.6-1,1-2,1.4-3.1
		c0.3-1.2,0.8-2.4,1.4-3.5c0.3-0.6,0.8-1.1,1.3-1.5s1-0.8,1.6-1.1c1.1-0.6,2.2-1,3.3-1.5c2.1-1,4-2.3,5.6-3.9l-0.2,0.5
		c0-2.7,0-5.5,0-8.2c0.1-2.7,0.2-5.5,0.3-8.2c0.2-2.7,0.4-5.5,0.8-8.2c0.2-1.4,0.5-2.7,0.8-4c0.3-1.4,0.8-2.7,1.4-3.9l0.1-0.1h0.2
		l4.8,0.1L-2436.5,1655.3z M-2436.6,1655.4h-9.4l0,0c-0.6,1.2-1,2.5-1.3,3.9c-0.3,1.3-0.5,2.7-0.7,4c-0.4,2.7-0.6,5.4-0.7,8.1
		c-0.3,5.4-0.3,10.9-0.2,16.3l0,0l0,0c-1.6,1.7-3.6,3.1-5.8,4.2c-1.1,0.5-2.2,0.9-3.2,1.5c-1.1,0.5-1.9,1.3-2.6,2.3
		c-0.6,1-1,2.1-1.3,3.3c-0.4,1.1-0.8,2.2-1.4,3.3c-1.2,2.1-2.7,4-4.6,5.4l0,0v0.1v-0.1l8.2,8.6h-0.1l25.8-27.1
		c1.1-1.1,2.2-2.2,3.2-3.4c0.5-0.6,1-1.2,1.4-1.9c0.4-0.7,0.7-1.4,0.9-2.1c0.5-1.5,0.5-3.1,0-4.6l-1.6-4.4L-2436.6,1655.4z"/>
	<path class="st0" d="M-2464,1711.8l-6.4,6.5l7.4,5.5h5c0,0,0.4-1.6-4.1-3.6c0,0-1.8-1.3-0.2-3.9l1.1-1.6L-2464,1711.8z"/>
	<path class="st1" d="M-2464,1711.8l-1.6,1.8l-1.5,1.7c-1,1.1-2,2.2-3,3.2v-0.6c1.2,0.9,2.4,2,3.6,2.9c1.2,1,2.4,1.9,3.7,2.7h-0.1
		c1.7-0.1,3.3-0.2,5-0.2l-0.4,0.3l0,0v-0.1c0-0.1-0.1-0.2-0.1-0.2c-0.1-0.2-0.2-0.3-0.4-0.5c-0.3-0.3-0.6-0.6-1-0.8
		c-0.8-0.5-1.6-0.9-2.4-1.3l0,0h-0.1c-0.3-0.2-0.5-0.5-0.6-0.7c-0.2-0.3-0.3-0.6-0.3-0.9c-0.1-0.6-0.1-1.2,0.2-1.8
		c0.2-0.5,0.5-1,0.8-1.4s0.6-0.8,0.9-1.3v0.4l-1.3-1.5C-2463.1,1712.9-2463.5,1712.4-2464,1711.8z M-2464,1711.7l1.5,1.3l1.6,1.5
		c0.1,0.1,0.1,0.3,0.1,0.4l0,0c-0.3,0.4-0.5,0.9-0.8,1.3s-0.5,0.8-0.6,1.3c-0.1,0.4-0.2,0.9-0.1,1.3c0,0.2,0.1,0.4,0.2,0.6
		c0.1,0.2,0.2,0.3,0.4,0.4l-0.1-0.1c0.4,0.2,0.9,0.4,1.3,0.6c0.4,0.2,0.8,0.5,1.2,0.8s0.8,0.6,1.1,1c0.2,0.2,0.3,0.4,0.5,0.7
		c0.1,0.1,0.1,0.3,0.2,0.4c0,0.1,0,0.2,0,0.2c0,0.1,0,0.2,0,0.3c0,0.2-0.2,0.3-0.4,0.3l0,0c-1.7,0-3.3-0.2-5-0.2l0,0h-0.1
		c-1.2-1-2.4-1.9-3.7-2.8s-2.6-1.7-3.8-2.6c-0.2-0.1-0.2-0.4-0.1-0.6l0,0l0,0l0,0c1.1-1.1,2.2-2.2,3.4-3.3l1.7-1.5
		C-2465.1,1712.7-2464.5,1712.2-2464,1711.7L-2464,1711.7z"/>
	<path class="st1" d="M-2466,1713.8l3.8,2.5l-0.1,0.1c-1.6,2.5,0.2,3.9,0.2,3.9c4.5,2,4.1,3.6,4.1,3.6h-5l-7.4-5.5L-2466,1713.8z"/>
	<path class="st1" d="M-2443.2,1672.6c-0.4-4.5-1.6-9.1-4.2-12.7c0.3-1.6,0.8-3.1,1.4-4.6h9.4l8.3,22c0,0,1.6,4.5-2.9,9.1l-9.8,10.3
		c-0.6-1.8-1.1-3.7-1.4-5.6C-2443.4,1685-2442.7,1678.7-2443.2,1672.6z"/>
	<path class="st0" d="M-2432.9,1713.3c1.6-4.1,2.1-7.4-0.3-11.1c-1.9-2.9-5-5.5-5.9-9c-1.8-7.8,0.4-13.2-4-20.6
		c-1.6-2.5-3.1-5-4.4-7.7c-1.1-2.9,0.4-6.8,1.5-9.7h9.4l22.1,58.7l-19.1,0.7L-2432.9,1713.3z"/>
	<path class="st1" d="M-2433,1713.3c0.5-1.2,0.9-2.4,1.1-3.7c0.1-0.6,0.2-1.3,0.2-1.9s-0.1-1.3-0.2-1.9c-0.3-1.3-0.8-2.5-1.5-3.5
		c-0.7-1.1-1.6-2.1-2.4-3.1c-0.9-1-1.6-2-2.3-3.2c-0.7-1.1-1.2-2.4-1.4-3.7c-0.5-2.6-0.8-5.2-0.9-7.8c-0.1-1.3-0.2-2.6-0.4-3.9
		s-0.5-2.5-0.9-3.7s-1-2.4-1.6-3.5s-1.4-2.2-2.1-3.3c-0.7-1.1-1.4-2.2-2-3.4c-0.3-0.6-0.6-1.2-0.9-1.9c-0.2-0.7-0.4-1.4-0.4-2.1
		c0-1.4,0.2-2.7,0.6-4.1c0.4-1.3,0.8-2.5,1.3-3.8l0.2-0.5h0.5l9.4-0.1h0.6l0.2,0.5c1.9,4.9,3.7,9.8,5.5,14.7
		c1.8,4.9,3.7,9.8,5.4,14.7l10.6,29.5l0.1,0.2h-0.2l-19.1,0.6h-0.1v-0.1L-2433,1713.3z M-2432.9,1713.4l-0.6,1.4v-0.1l19.1-0.7
		l-0.1,0.1l-22.2-58.7l0.1,0.1h-9.4l0.1-0.1c-0.5,1.2-0.9,2.4-1.3,3.7c-0.4,1.2-0.6,2.5-0.6,3.8c0,0.6,0.1,1.3,0.3,1.9
		s0.5,1.2,0.8,1.8c0.6,1.1,1.3,2.3,2,3.4s1.4,2.2,2,3.3c0.6,1.1,1.2,2.3,1.6,3.6c0.4,1.2,0.7,2.5,0.8,3.8c0.2,1.3,0.2,2.6,0.3,3.9
		c0,2.6,0.3,5.2,0.7,7.8c0.2,1.3,0.6,2.5,1.3,3.6s1.5,2.2,2.3,3.1c0.9,1,1.6,2,2.4,3.1c0.7,1.1,1.3,2.3,1.5,3.6
		c0.1,0.6,0.2,1.3,0.2,2s-0.1,1.3-0.2,1.9C-2432,1710.9-2432.4,1712.2-2432.9,1713.4z"/>
	<path class="st0" d="M-2436.3,1656l-1.8-7.1c-0.4-1.5-0.6-3-0.6-4.5l1.2-4.1c0.4-1.8-4.2-6.9-4.2-6.9c-1.6-1.4-3.6-2.3-5.7-2.5
		c-4.7,0-3.6,7.3-3.6,7.3s1.2,5.7,2,8.3c0.2,0.6,0.3,1.2,0.3,1.8c0,1.2-0.2,2.3-0.6,3.4l-1.8,4.5c0,0,2,2,9,0.2
		C-2442.2,1656.4-2437.9,1654.9-2436.3,1656z"/>
	<path class="st1" d="M-2436.4,1655.9c-0.3-1-0.6-2-0.9-2.9c-0.3-0.9-0.6-1.9-0.9-2.8l-0.4-1.4c-0.1-0.5-0.2-1-0.3-1.5
		c-0.2-1-0.3-2-0.3-3v-0.1v-0.1l0.8-2.8l0.2-0.7l0.1-0.3c0-0.1,0.1-0.2,0.1-0.3c0-0.4-0.1-0.8-0.3-1.2c-0.9-1.7-1.9-3.3-3.2-4.8
		c-1.2-1.5-2.9-2.5-4.8-2.9c-0.2,0-0.5-0.1-0.7-0.1s-0.5-0.1-0.7,0c-0.5,0-0.9,0.1-1.3,0.4c-0.8,0.5-1.4,1.3-1.6,2.2
		c-0.2,0.9-0.3,1.9-0.3,2.8c0,0.5,0.1,1,0.1,1.4v0.2c0,0.1,0,0.1,0,0.2l0.1,0.4l0.2,0.7c0.5,1.9,0.9,3.8,1.4,5.7
		c0.1,0.5,0.3,0.9,0.4,1.4c0.2,0.5,0.3,1,0.3,1.5c0.1,1,0,2.1-0.3,3.1c-0.1,0.5-0.3,1-0.5,1.4l-0.5,1.4l-1.1,2.7l-0.1-0.5
		c0.1,0.1,0.2,0.2,0.4,0.2c0.2,0.1,0.3,0.2,0.5,0.2c0.3,0.1,0.7,0.2,1,0.3c0.7,0.1,1.5,0.2,2.2,0.1c0.4,0,0.7,0,1.1-0.1
		c0.4,0,0.7-0.1,1.1-0.1s0.7-0.1,1.1-0.2l1.1-0.2l0,0c0.5-0.2,1-0.3,1.5-0.4s1-0.2,1.5-0.3c0.5-0.1,1-0.1,1.5,0
		c0.3,0,0.5,0.1,0.8,0.1c0.1,0,0.2,0.1,0.4,0.1l0.2,0.1C-2436.4,1655.9-2436.4,1655.9-2436.4,1655.9z M-2436.3,1656
		c-0.1,0-0.1,0-0.2-0.1l-0.2-0.1c-0.1,0-0.2-0.1-0.4-0.1s-0.5-0.1-0.7-0.1c-0.5,0-1,0.1-1.5,0.2c-1,0.2-1.9,0.5-2.9,0.8l0,0
		l-1.1,0.3c-0.4,0.1-0.8,0.2-1.1,0.3c-0.4,0.1-0.8,0.1-1.2,0.2c-0.4,0-0.8,0.1-1.2,0.1c-0.8,0.1-1.6,0-2.4-0.1
		c-0.4-0.1-0.8-0.1-1.2-0.3c-0.2-0.1-0.4-0.2-0.6-0.2c-0.2-0.1-0.4-0.2-0.6-0.4l-0.2-0.2l0.1-0.3l1.1-2.7l0.5-1.4
		c0.2-0.4,0.3-0.9,0.5-1.3c0.2-0.9,0.3-1.8,0.3-2.7c0-0.5-0.1-0.9-0.3-1.3c-0.1-0.5-0.3-1-0.4-1.4c-0.5-1.9-0.9-3.8-1.3-5.7
		l-0.1-0.7l-0.1-0.4c0-0.1,0-0.1,0-0.2v-0.2c0-0.5,0-1,0-1.5c0-1,0.2-2,0.5-3s0.9-1.8,1.8-2.4c0.5-0.2,1-0.4,1.5-0.4
		c0.3,0,0.5,0,0.8,0.1c0.2,0,0.5,0.1,0.7,0.1c1,0.2,1.9,0.5,2.8,1c0.4,0.2,0.9,0.5,1.3,0.8c0.2,0.2,0.4,0.3,0.6,0.5
		c0.2,0.2,0.3,0.4,0.5,0.5c0.7,0.7,1.3,1.5,1.9,2.3c0.6,0.8,1.2,1.6,1.6,2.5c0.3,0.5,0.4,1,0.4,1.6c0,0.1,0,0.3-0.1,0.4l-0.1,0.4
		l-0.2,0.7l-0.8,2.8v-0.1c0,1,0.1,1.9,0.2,2.9c0.1,0.5,0.1,1,0.2,1.4l0.3,1.5c0.2,1,0.4,2,0.6,3S-2436.5,1655.1-2436.3,1656
		L-2436.3,1656z"/>
	<line class="st2" x1="-2445" y1="1640.8" x2="-2437.9" y2="1649.7"/>
	<path class="st1" d="M-2445,1640.8c0.4,0.3,0.7,0.7,1,1l1,1c0.6,0.7,1.2,1.4,1.8,2.2s1.2,1.5,1.7,2.3l0.8,1.2
		c0.2,0.4,0.5,0.8,0.7,1.2l0,0l-3.6-4.4L-2445,1640.8L-2445,1640.8z"/>
	<path class="st1" d="M-2447.2,1627c0.5,0.3,1,0.4,1.5,0.6c0,0,0.2,0.7,0.4,1.4C-2446.1,1628.4-2446.8,1627.8-2447.2,1627z"/>
	<path class="st1" d="M-2421.6,1642.7c0,0,0.2,0,0.7,0.3l-0.8,0.6L-2421.6,1642.7z"/>
	<path class="st1" d="M-2419.6,1645.4c0.2,0.8,0.4,1.6,0.5,2.4l-1-1.6L-2419.6,1645.4z"/>
	<path class="st0" d="M-2441.1,1647.6l5.5,3.8c3,2,7.8,1.6,9.5,0.7c3.3-1.6,5.4-5.7,8.9-9.8c0.7-0.6,1.5-1.1,2.4-1.3
		c0.3,0,0.7-0.1,1-0.2c0.8-0.2,1.4-0.9,1.5-1.7l0.1-0.6c0-0.3-0.2-0.6-0.5-0.6c-0.1,0-0.3,0-0.4,0.1l-4.4,2.7c0,0-10.3,7.5-13.8,7.6
		l-6.8-7.3"/>
	<path class="st1" d="M-2441.1,1647.6c1.2,0.7,2.3,1.4,3.5,2.2l1.7,1.1c0.5,0.4,1.1,0.7,1.7,0.9c1.2,0.4,2.5,0.7,3.9,0.7
		c1.3,0,2.6-0.2,3.9-0.6c1.2-0.5,2.3-1.3,3.2-2.2c0.9-1,1.8-2,2.6-3.1l2.5-3.2c0.2-0.3,0.4-0.5,0.6-0.8c0.2-0.3,0.5-0.5,0.7-0.8
		c0.6-0.4,1.2-0.7,1.9-0.9l0,0c0.2,0,0.4-0.1,0.6-0.1c0.2,0,0.4-0.1,0.6-0.2c0.3-0.2,0.6-0.4,0.8-0.8c0.1-0.2,0.1-0.3,0.2-0.5
		l0.1-0.6v-0.1l0,0c0,0,0,0,0-0.1c0,0,0-0.1-0.1-0.1s-0.2-0.1-0.2,0l-2.2,1.4l-2.2,1.4l0,0c-1.1,0.8-2.2,1.5-3.2,2.3
		c-1.1,0.7-2.2,1.5-3.3,2.2s-2.3,1.3-3.5,1.9c-0.6,0.3-1.2,0.6-1.9,0.8c-0.7,0.3-1.3,0.4-2,0.5h-0.2l-0.1-0.1
		c-1.1-1.2-2.2-2.5-3.3-3.7s-2.2-2.5-3.2-3.8l0.1-0.1c1.2,1.1,2.4,2.3,3.5,3.5c1.2,1.2,2.3,2.3,3.5,3.5l-0.3-0.1
		c0.6-0.1,1.2-0.3,1.8-0.5s1.2-0.5,1.8-0.8c1.2-0.6,2.3-1.3,3.4-1.9c1.1-0.7,2.2-1.4,3.3-2.1s2.2-1.5,3.3-2.2l0,0l0,0l2.3-1.3
		l2.3-1.3c0.3-0.2,0.7-0.1,1,0.1c0.1,0.1,0.2,0.3,0.3,0.4c0,0.1,0,0.2,0,0.3v0.1v0.1c0,0.2-0.1,0.4-0.1,0.7
		c-0.1,0.2-0.1,0.5-0.3,0.7c-0.3,0.4-0.6,0.8-1.1,1c-0.2,0.1-0.4,0.1-0.7,0.2c-0.2,0-0.5,0.1-0.7,0.1l0,0c-0.6,0.2-1.2,0.4-1.8,0.8
		c-0.3,0.2-0.5,0.4-0.7,0.7c-0.2,0.3-0.4,0.5-0.6,0.8c-0.9,1.1-1.6,2.2-2.4,3.3c-0.8,1.1-1.6,2.2-2.5,3.3c-0.5,0.5-1,1-1.5,1.5
		s-1.2,0.8-1.8,1.1c-0.7,0.3-1.4,0.4-2.1,0.5c-0.7,0.1-1.4,0.1-2.1,0.1c-0.7,0-1.4-0.1-2.1-0.2c-0.7-0.1-1.4-0.3-2-0.6
		c-0.6-0.3-1.3-0.6-1.8-1.1l-1.6-1.2C-2439,1649.3-2440.1,1648.5-2441.1,1647.6L-2441.1,1647.6z"/>
	<path class="st0" d="M-2446,1634.9c3.1-1.4,8.9,6.9,8.9,6.9l5.7,6.5l9.7-5.6c0,1.3,2.5,4.9,2.5,4.9l0.1,0.6c0,1.8-0.1,3.9-1.6,4.9
		c-1.3,0.9-3.1,0.5-4.8,0.4c-1.6-0.1-3.2,0.2-4.7,0.8c-0.8,0.4-1.7,0.7-2.6,0.8c-1.2-0.1-2.4-0.6-3.3-1.5c-1.2-0.9-3.3-2.9-3.3-2.9
		s-3.7-4.2-5.2-6.3l-1.9-2.5C-2449.9,1636.4-2446,1634.9-2446,1634.9z"/>
	<path class="st1" d="M-2446,1634.9c0.5-0.2,1-0.2,1.5-0.1s0.9,0.3,1.4,0.6c0.8,0.5,1.6,1.1,2.4,1.8c0.7,0.7,1.4,1.4,2.1,2.1
		c0.7,0.7,1.3,1.5,1.9,2.3l0,0l2.9,3.2c0.5,0.5,1,1.1,1.4,1.6l1.4,1.6l-0.5-0.1c1.6-0.9,3.2-1.9,4.8-2.8l4.9-2.8l0.5-0.3v0.6
		c0,0.4,0.2,0.8,0.4,1.2c0.2,0.4,0.4,0.8,0.6,1.2c0.4,0.8,0.9,1.6,1.4,2.3v0.1v0.1l0.1,0.6l0,0c0,1.1-0.1,2.2-0.5,3.3
		c-0.2,0.5-0.5,1-0.9,1.4s-0.9,0.7-1.5,0.8c-1.1,0.2-2.2,0.2-3.3,0c-1.1-0.1-2.1-0.1-3.2,0.1c-0.5,0.1-1,0.2-1.5,0.4
		c-0.5,0.2-1,0.4-1.5,0.6s-1.1,0.4-1.6,0.4c-0.6,0-1.1-0.1-1.7-0.3c-1-0.5-1.9-1.1-2.7-1.8c-0.8-0.7-1.7-1.4-2.5-2.1l0,0l0,0
		c-1.1-1.2-2.1-2.4-3.2-3.7c-0.5-0.6-1-1.3-1.5-1.9c-0.5-0.7-0.9-1.3-1.4-2c-0.5-0.6-0.9-1.3-1.3-2c-0.4-0.7-0.7-1.5-0.9-2.3
		s-0.1-1.6,0.2-2.4C-2447.4,1635.8-2446.8,1635.2-2446,1634.9z M-2446,1635c-0.7,0.3-1.3,0.9-1.6,1.7c-0.3,0.8-0.3,1.6-0.1,2.3
		c0.2,0.8,0.5,1.5,1,2.2c0.4,0.7,0.9,1.3,1.4,1.9s1,1.3,1.5,1.9s1,1.3,1.5,1.9l1.6,1.8c0.5,0.6,1,1.2,1.6,1.8l0,0l2.4,2.2
		c0.8,0.7,1.6,1.4,2.5,1.9c0.5,0.2,1,0.4,1.5,0.4s1-0.1,1.5-0.3c0.5-0.2,1-0.4,1.5-0.6s1-0.3,1.6-0.4c1.1-0.2,2.2-0.2,3.2-0.1
		c1.1,0.2,2.1,0.1,3.2,0c1-0.3,1.8-1.1,2.1-2.1s0.4-2.1,0.3-3.1l0,0l-0.1-0.6v0.1c-0.5-0.8-1-1.5-1.5-2.3c-0.2-0.4-0.5-0.8-0.7-1.2
		c-0.2-0.5-0.4-0.9-0.4-1.4l0.5,0.3l-4.8,2.8c-1.6,0.9-3.2,1.9-4.8,2.8l-0.3,0.2l-0.2-0.2l-1.4-1.6c-0.5-0.5-1-1.1-1.4-1.6l-2.8-3.3
		l0,0l0,0c-1.1-1.6-2.3-3.2-3.7-4.6c-0.7-0.7-1.4-1.3-2.3-1.9c-0.4-0.3-0.9-0.5-1.3-0.6C-2445,1634.8-2445.5,1634.8-2446,1635
		L-2446,1635z"/>
	<path class="st1" d="M-2458.8,1645.5c0.1-0.5,3.3-0.9,3.7-1c2.8-0.7,5.3-2.3,5.5-5.4c0.1-1.6-1-3.3-0.1-4.8c2.4-3.6,2-5.2,1.7-6.9
		c-0.3-1.5-1.8-2-1.7-2.9c0-0.7,1.2-0.4,1.2-0.4c1.5,0.1,1.2-2,1.2-2c2.8,1.6,3.9,0.5,4.1,0.5c0,0,0.1-4.6-5.4-4
		c-1.8,0.4-3.2,1.9-3.6,3.7c-0.1,1.7-0.8,3.3-1.9,4.6c-0.9,1.3-2.2,1.9-2.6,3.6c-0.2,0.8-0.2,1.7-0.4,2.6c-0.3,1.3-1.1,2.5-1.4,3.8
		c-0.4,1.6,0.1,3.3,0.1,5C-2458.5,1642.8-2458.6,1644.2-2458.8,1645.5z"/>
</g>
</svg>
