<?xml version="1.0" encoding="utf-8"?>
<!-- Generator: Adobe Illustrator 21.0.0, SVG Export Plug-In . SVG Version: 6.00 Build 0)  -->
<svg version="1.1" id="Layer_1" xmlns="http://www.w3.org/2000/svg" xmlns:xlink="http://www.w3.org/1999/xlink" x="0px" y="0px"
	 viewBox="0 0 200 31" style="enable-background:new 0 0 200 31;" xml:space="preserve">
<style type="text/css">
	.st0{fill:#98002E;}
	.st1{fill:#E31837;}
	.st2{fill:#003D79;}
</style>
<title>Asset 2</title>
<g>
	<path class="st0" d="M37.1,27.7L19.3,19V0L37.1,27.7z M38.6,31l-19.3-8.2V31H38.6z"/>
	<polyline class="st1" points="1.4,27.7 19.3,0 19.3,19 1.4,27.7 	"/>
	<polyline class="st1" points="0,31 19.3,31 19.3,22.8 0,31 	"/>
	<path class="st0" d="M40.1,25.3c0.7,0,1.3,0.6,1.3,1.3c0,0.7-0.6,1.3-1.3,1.3s-1.3-0.6-1.3-1.3l0,0C38.9,25.9,39.4,25.3,40.1,25.3z
		 M40.1,27.7c0.6,0,1.1-0.5,1.1-1.1c0-0.6-0.5-1.1-1.1-1.1c-0.6,0-1.1,0.5-1.1,1.1l0,0l0,0C39,27.2,39.5,27.7,40.1,27.7L40.1,27.7
		L40.1,27.7z M39.8,27.3h-0.2v-1.5h0.6c0.3,0,0.5,0.1,0.5,0.4c0,0.2-0.2,0.4-0.4,0.4l0.4,0.6h-0.2l-0.4-0.6h-0.3L39.8,27.3z
		 M39.8,26.5h0.2c0.2,0,0.4,0,0.4-0.3c0-0.2-0.2-0.2-0.3-0.2h-0.3L39.8,26.5L39.8,26.5z"/>
	<g>
		<path class="st2" d="M53.6,27.7h8.7c8.9,0,14.2-4.6,14.2-12.4S71.2,3,62.3,3h-8.7V27.7z M59.1,7.3h3.2c5.8,0,8.7,2.9,8.7,8.1
			s-2.9,8.1-8.7,8.1h-3.2V7.3z"/>
		<polygon class="st2" points="95.1,17 105.6,17 105.6,12.7 95.1,12.7 95.1,7.3 106.9,7.3 106.9,3 89.6,3 89.6,27.7 107.3,27.7 
			107.3,23.4 95.1,23.4 		"/>
		<polygon class="st2" points="138.5,23.4 128,23.4 128,3 122.5,3 122.5,27.7 138.5,27.7 		"/>
		<polygon class="st2" points="168.1,3 146.1,3 146.1,7.3 154.4,7.3 154.4,27.7 159.9,27.7 159.9,7.3 168.1,7.3 		"/>
		<path class="st2" d="M200,27.7h-5.7l-2.4-6.2h-10l-2.4,6.2h-5.4l10.3-24.8h5.5L200,27.7z M190.3,17.4l-3.4-8.8l-3.4,8.8H190.3z"/>
	</g>
</g>
</svg>
