<?xml version="1.0" encoding="utf-8"?>
<!-- Generator: Adobe Illustrator 21.0.0, SVG Export Plug-In . SVG Version: 6.00 Build 0)  -->
<svg version="1.1" id="Layer_1" xmlns="http://www.w3.org/2000/svg" xmlns:xlink="http://www.w3.org/1999/xlink" x="0px" y="0px"
	 viewBox="0 0 200 47" style="enable-background:new 0 0 200 47;" xml:space="preserve">
<style type="text/css">
	.st0{fill:#4C4C4C;}
	.st1{fill:#2BB673;}
	.st2{fill:#FFFFFF;}
</style>
<path class="st0" d="M60.9,34.6c-0.7-0.3-1.2-0.9-1.2-1.7c0-1,0.8-1.7,1.7-1.7c0.3,0,0.5,0.1,0.7,0.2c1.2,0.6,2.6,0.9,4.2,0.9
	c3,0,4.3-1.4,4.3-4.1v-0.7c-1.3,1.5-2.7,2.5-5,2.5c-3.5,0-6.7-2.6-6.7-7v-0.1c0-4.5,3.3-7.1,6.7-7.1c2.4,0,3.7,1,4.9,2.2v-0.1
	c0-1.2,1-2.1,2.1-2.1c1.2,0,2.1,1,2.1,2.1v9.8c0,2.7-0.7,4.7-1.9,6c-1.4,1.4-3.6,2-6.5,2C64.4,35.7,62.7,35.4,60.9,34.6z M70.6,22.8
	L70.6,22.8c0-2.1-1.6-3.6-3.7-3.6s-3.7,1.4-3.7,3.5v0.1c0,2.1,1.6,3.5,3.7,3.5C69,26.3,70.6,24.8,70.6,22.8z M77.3,17.9
	c0-1.2,1-2.1,2.1-2.1c1.2,0,2.1,1,2.1,2.1v0.7c0.6-1.5,1.6-2.8,2.9-2.8c1.3,0,2.1,0.9,2.1,2.1c0,1.1-0.7,1.8-1.6,2
	c-2.2,0.5-3.4,2.2-3.4,5.2v4c0,1.2-1,2.1-2.1,2.1c-1.2,0-2.1-1-2.1-2.1C77.3,29.1,77.3,17.9,77.3,17.9z M86.1,26.7L86.1,26.7
	c0-3.4,2.5-4.9,6.1-4.9c1.5,0,2.7,0.3,3.7,0.6v-0.3c0-1.8-1.1-2.8-3.3-2.8c-1.2,0-2.1,0.2-3,0.4c-0.3,0.1-0.4,0.1-0.6,0.1
	c-1,0-1.8-0.8-1.8-1.7c0-0.8,0.5-1.4,1.2-1.7c1.4-0.5,2.8-0.8,4.9-0.8c2.4,0,4,0.6,5.1,1.7c1.1,1.1,1.6,2.8,1.6,4.9v6.9
	c0,1.2-0.9,2-2.1,2c-1.2,0-2-0.9-2-1.8v-0.1c-1,1.2-2.5,1.9-4.6,1.9C88.5,31.4,86.1,29.7,86.1,26.7z M96,25.7V25
	c-0.7-0.4-1.7-0.6-2.8-0.6c-1.8,0-3,0.7-3,2.1v0.1c0,1.2,1,1.8,2.4,1.8C94.6,28.4,96,27.3,96,25.7L96,25.7z M102.4,17.9
	c0-1.2,1-2.1,2.1-2.1c1.2,0,2.1,1,2.1,2.1v0.2c1-1.3,2.3-2.5,4.5-2.5c2,0,3.5,0.9,4.3,2.4c1.3-1.5,2.9-2.4,5-2.4
	c3.2,0,5.1,1.9,5.1,5.6v7.9c0,1.2-1,2.1-2.1,2.1c-1.2,0-2.1-1-2.1-2.1v-6.5c0-2-0.9-3.1-2.5-3.1c-1.6,0-2.6,1.1-2.6,3.1v6.5
	c0,1.2-1,2.1-2.1,2.1s-2.1-1-2.1-2.1v-6.5c0-2-0.9-3.1-2.5-3.1c-1.6,0-2.6,1.1-2.6,3.1v6.5c0,1.2-1,2.1-2.1,2.1
	c-1.2,0-2.1-1-2.1-2.1L102.4,17.9L102.4,17.9z M127.8,17.9c0-1.2,1-2.1,2.1-2.1s2.1,1,2.1,2.1v0.2c1-1.3,2.3-2.5,4.5-2.5
	c2,0,3.5,0.9,4.3,2.4c1.3-1.5,2.9-2.4,5-2.4c3.2,0,5.1,1.9,5.1,5.6v7.9c0,1.2-1,2.1-2.1,2.1s-2.1-1-2.1-2.1v-6.5
	c0-2-0.9-3.1-2.5-3.1c-1.6,0-2.6,1.1-2.6,3.1v6.5c0,1.2-1,2.1-2.1,2.1c-1.2,0-2.1-1-2.1-2.1v-6.5c0-2-0.9-3.1-2.5-3.1
	c-1.6,0-2.6,1.1-2.6,3.1v6.5c0,1.2-1,2.1-2.1,2.1c-1.2,0-2.1-1-2.1-2.1L127.8,17.9L127.8,17.9z M152.4,26.7L152.4,26.7
	c0-3.4,2.5-4.9,6.1-4.9c1.5,0,2.7,0.3,3.7,0.6v-0.3c0-1.8-1.1-2.8-3.3-2.8c-1.2,0-2.1,0.2-3,0.4c-0.3,0.1-0.4,0.1-0.6,0.1
	c-1,0-1.8-0.8-1.8-1.7c0-0.8,0.5-1.4,1.2-1.7c1.4-0.5,2.8-0.8,4.9-0.8c2.4,0,4,0.6,5.1,1.7c1.1,1.1,1.6,2.8,1.6,4.9v6.9
	c0,1.2-0.9,2-2.1,2c-1.2,0-2-0.9-2-1.8v-0.1c-1.1,1.2-2.5,1.9-4.6,1.9C154.8,31.4,152.4,29.7,152.4,26.7z M162.3,25.7V25
	c-0.7-0.4-1.7-0.6-2.8-0.6c-1.8,0-3,0.7-3,2.1v0.1c0,1.2,1,1.8,2.4,1.8C161,28.4,162.3,27.3,162.3,25.7L162.3,25.7z M168.7,17.9
	c0-1.2,1-2.1,2.1-2.1c1.2,0,2.1,1,2.1,2.1v0.7c0.6-1.5,1.6-2.8,2.9-2.8c1.3,0,2.1,0.9,2.1,2.1c0,1.1-0.7,1.8-1.6,2
	c-2.2,0.5-3.4,2.2-3.4,5.2v4c0,1.2-1,2.1-2.1,2.1s-2.1-1-2.1-2.1V17.9z M179.3,12.4c0-1.2,1-2.1,2.1-2.1c1.2,0,2.1,1,2.1,2.1v16.7
	c0,1.2-1,2.1-2.1,2.1s-2.1-1-2.1-2.1V12.4z M187,35.3c-0.6-0.2-1.4-0.7-1.4-1.8s0.8-1.7,1.7-1.7c0.4,0,0.6,0.1,0.7,0.1
	c0.4,0.1,0.6,0.2,0.9,0.2c0.8,0,1.1-0.2,1.5-0.9l0.2-0.4l-5.2-12c-0.1-0.3-0.2-0.7-0.2-1c0-1.2,0.9-2,2.1-2c1.1,0,1.7,0.6,2,1.6
	l3.3,8.8l3.2-8.8c0.4-0.9,1-1.6,2-1.6c1.1,0,2,0.9,2,2c0,0.4-0.1,0.8-0.2,1l-5.3,12.7c-1.3,3.1-2.6,4.2-5.1,4.2
	C188.4,35.7,187.7,35.6,187,35.3L187,35.3z"/>
<ellipse class="st1" cx="23.5" cy="23.5" rx="23.5" ry="23.5"/>
<path class="st2" d="M28.2,26.7c-1,0-1.7,0.9-1.6,1.9c0.2,0.8,0.9,1.3,1.6,1.3h2.5l1.4-0.2c-2.3,3.4-6.2,4.9-10.6,4.2
	c-3.5-0.6-6.5-3-7.8-6.3c-2.9-7.6,2.6-14.8,9.8-14.8c3.7,0,7.1,2.2,8.9,4.9v0.1c0.5,0.7,1.5,0.9,2.2,0.4c0.7-0.5,0.9-1.4,0.5-2.1
	c-2.6-4.1-7.3-6.7-12.6-6.3c-6.8,0.6-12.4,6.2-12.8,13.1c-0.5,8,5.9,14.5,13.8,14.5c4.1,0,7.9-1.8,10.4-4.8l-0.3,1.7v1.5
	c0,0.8,0.5,1.5,1.3,1.6c1,0.2,1.9-0.6,1.9-1.6v-9H28.2z"/>
</svg>
