<?xml version="1.0" encoding="utf-8"?>
<!-- Generator: Adobe Illustrator 21.0.0, SVG Export Plug-In . SVG Version: 6.00 Build 0)  -->
<svg version="1.1" id="Layer_1" xmlns="http://www.w3.org/2000/svg" xmlns:xlink="http://www.w3.org/1999/xlink" x="0px" y="0px"
	 viewBox="0 0 150 48" style="enable-background:new 0 0 150 48;" xml:space="preserve">
<style type="text/css">
	.st0{fill:#4398D1;}
	.st1{fill:#245F99;}
</style>
<g>
	<g>
		<rect x="47.1" y="42.5" class="st0" width="35.9" height="2.2"/>
		<g>
			<polygon class="st1" points="47.1,25.1 49.1,25.1 50.4,34.6 51.9,25.1 53.7,25.1 55.2,34.6 56.4,25.1 58.4,25.1 56.2,38.8 
				54.2,38.8 52.8,29.6 51.3,38.8 49.3,38.8 			"/>
			<polygon class="st1" points="61.4,25.1 66.5,25.1 66.5,26.9 63.4,26.9 63.4,31 66.2,31 66.2,32.8 63.4,32.8 63.4,37 66.6,37 
				66.6,38.8 61.4,38.8 			"/>
			<g>
				<path class="st1" d="M69.5,38.3v-2c0.9,0.5,1.5,0.8,2.2,0.8c0.9,0,1.5-0.5,1.5-1.5c0-0.7-0.2-1.3-1.5-2.8
					c-1.7-2-2.3-2.9-2.3-4.4v0c0-2,1.4-3.3,3.2-3.3c0.9,0,1.5,0.2,2.1,0.5v2c-0.7-0.4-1.3-0.7-1.9-0.7c-0.8,0-1.4,0.5-1.4,1.4
					c0,0.7,0.3,1.2,1.5,2.7c1.8,2.1,2.3,3.1,2.3,4.6v0c0,2-1.4,3.4-3.2,3.4C71,38.9,70.2,38.7,69.5,38.3"/>
			</g>
			<polygon class="st1" points="79.2,26.9 77.4,26.9 77.4,25.1 83,25.1 83,26.9 81.1,26.9 81.1,38.8 79.2,38.8 			"/>
			<polygon class="st1" points="91.2,25.1 96,25.1 96,26.9 93.1,26.9 93.1,31.1 95.7,31.1 95.7,32.9 93.1,32.9 93.1,38.8 91.2,38.8 
							"/>
			<polygon class="st1" points="99.2,25.1 101.1,25.1 101.1,37 103.9,37 103.9,38.8 99.2,38.8 			"/>
			<g>
				<path class="st1" d="M111.3,32.2v-0.6c0-3.7-0.6-5-1.6-5c-0.9,0-1.6,1.3-1.6,5v0.6c0,3.7,0.6,5,1.6,5
					C110.6,37.2,111.3,35.9,111.3,32.2 M106.2,32.2v-0.6c0-4.5,1.5-6.7,3.5-6.7c2.1,0,3.5,2.2,3.5,6.7v0.6c0,4.5-1.4,6.7-3.5,6.7
					C107.6,38.9,106.2,36.7,106.2,32.2"/>
				<path class="st1" d="M118.8,32.1c1.3,0,2.2-0.8,2.2-2.5v-0.1c0-1.9-0.9-2.5-2.2-2.5h-0.3v5.2H118.8z M116.6,25.1h2.2
					c1.3,0,2.3,0.4,3,1.1c0.7,0.7,1.1,1.8,1.1,3.2v0.1c0,1.8-0.8,3-1.8,3.7l2.1,5.6h-2.1l-1.8-5c-0.1,0-0.2,0-0.3,0h-0.5v5h-1.9
					V25.1z"/>
			</g>
			<rect x="126.3" y="25.1" class="st1" width="1.9" height="13.7"/>
			<g>
				<path class="st1" d="M133.9,26.9V37h0.3c1.4,0,2.5-1.3,2.5-4.9v-0.4c0-3.6-1.1-4.9-2.5-4.9H133.9z M131.9,25.1h2.1
					c2.9,0,4.7,2.2,4.7,6.6v0.4c0,4.4-1.8,6.6-4.7,6.6h-2.1V25.1z"/>
			</g>
			<path class="st1" d="M145.7,34l-1-5.5l-1,5.5H145.7z M143.7,25.1h2.1l2.7,13.7h-2l-0.5-3h-2.6l-0.5,3H141L143.7,25.1z"/>
			<g>
				<path class="st1" d="M47.2,14.9V5.1h1.9v10c0,1.4,0.5,2,1.4,2c0.8,0,1.3-0.6,1.3-2v-10h1.9v9.8c0,2.7-1.4,4-3.3,4
					C48.5,18.9,47.2,17.6,47.2,14.9"/>
			</g>
			<polygon class="st1" points="57.3,5.1 59.1,5.1 62.1,13.5 62.1,5.1 64,5.1 64,18.8 62.2,18.8 59.1,10 59.1,18.8 57.3,18.8 			"/>
			<rect x="67.7" y="5.1" class="st1" width="1.9" height="13.7"/>
			<polygon class="st1" points="72.6,5.1 74.6,5.1 76.2,15 77.8,5.1 79.7,5.1 77.2,18.8 75.2,18.8 			"/>
			<polygon class="st1" points="82.7,5.1 87.8,5.1 87.8,6.9 84.6,6.9 84.6,11 87.4,11 87.4,12.8 84.6,12.8 84.6,16.9 87.8,16.9 
				87.8,18.8 82.7,18.8 			"/>
			<g>
				<path class="st1" d="M93.4,12c1.3,0,2.2-0.8,2.2-2.5V9.4c0-1.9-0.9-2.5-2.2-2.5h-0.3V12H93.4z M91.1,5.1h2.2
					c1.3,0,2.3,0.4,3,1.1c0.7,0.7,1.1,1.8,1.1,3.2v0.1c0,1.8-0.8,3-1.8,3.7l2.1,5.6h-2.1l-1.8-5c-0.1,0-0.2,0-0.3,0h-0.5v5h-1.9V5.1
					z"/>
				<path class="st1" d="M100.5,18.2v-2c0.9,0.5,1.5,0.8,2.2,0.8c0.9,0,1.5-0.5,1.5-1.5c0-0.7-0.2-1.3-1.5-2.8
					c-1.7-2-2.3-2.9-2.3-4.4v0c0-2,1.4-3.3,3.2-3.3c0.9,0,1.5,0.2,2.1,0.5v2c-0.7-0.4-1.3-0.7-1.9-0.7c-0.8,0-1.4,0.5-1.4,1.4
					c0,0.7,0.3,1.2,1.5,2.7c1.8,2.1,2.3,3.1,2.3,4.6v0c0,2-1.4,3.4-3.2,3.4C102,18.9,101.2,18.6,100.5,18.2"/>
			</g>
			<rect x="109.2" y="5.1" class="st1" width="1.9" height="13.7"/>
			<polygon class="st1" points="116.2,6.9 114.3,6.9 114.3,5.1 119.9,5.1 119.9,6.9 118.1,6.9 118.1,18.8 116.2,18.8 			"/>
			<polygon class="st1" points="124.7,13.2 122,5.1 124,5.1 125.7,10.7 127.3,5.1 129.2,5.1 126.6,13.2 126.6,18.8 124.7,18.8 			
				"/>
			<g>
				<path class="st1" d="M137,14.4c0.6-0.9,1.4-2.9,1.4-3.9c0-0.4-0.1-0.9-0.5-0.9c-0.3,0-0.6,0.2-1.1,0.7c-0.8,1-1.6,3-1.6,4.2
					c0,0.5,0.2,0.9,0.6,0.9C136.1,15.3,136.5,15.1,137,14.4 M135.3,10c1-0.9,1.8-1.1,2.5-1.1c1.5,0,2.1,1,2,2.3c0,1-0.5,2.5-1.6,3.6
					c-1,0.9-1.9,1.1-2.6,1.1c-1.4,0-2.1-1-2.1-2.2C133.6,12.6,134.3,11,135.3,10"/>
				<path class="st1" d="M145.4,9.9c-0.6,1.7-1.3,4.7-1.8,6.3c-0.4,1.3-0.8,2.3-1.3,2.8c-0.4,0.4-1.3,1.1-2.3,1.1
					c-0.9,0-1.5-0.5-1.5-1.1c0-0.4,0.5-0.9,0.8-0.9c0.2,0,0.4,0.1,0.5,0.3c0.3,0.6,0.7,0.9,1,0.9c0.2,0,0.5-0.3,0.8-1.4
					c0.6-2,1.4-5.2,2.2-8.1h-1.5c-0.2-0.2,0-0.6,0.2-0.7h1.5c0.4-1.3,0.8-2.4,1.4-3.4c0.8-1.2,1.9-1.9,3.1-1.9
					c0.9,0,1.6,0.6,1.6,1.3c0,0.5-0.5,1-0.9,1c-0.2,0-0.3-0.1-0.4-0.3c-0.1-1-0.5-1.3-0.9-1.3c-0.2,0-0.6,0.2-1,1.1
					c-0.5,1.1-0.9,2.4-1.3,3.7h2c0.1,0.2,0.1,0.6-0.2,0.7H145.4z"/>
			</g>
		</g>
	</g>
	<g>
		<g>
			<path class="st0" d="M4.3,38.2l9.4-6.1c0.3-0.2,0.1-0.7-0.3-0.6L2,33.4c-0.3,0.1-0.5,0.4-0.4,0.6c0.5,1.4,1.2,2.7,2,4
				C3.8,38.2,4.1,38.3,4.3,38.2z"/>
			<path class="st0" d="M21.2,13.8L18,2c-0.2-0.6-0.6-0.7-1.1-0.5c-1.1,0.3-2.3,0.8-3.3,1.3c-0.6,0.3-1,0.8-0.6,1.3l7.9,9.9
				C21,14.2,21.3,14,21.2,13.8z"/>
			<path class="st0" d="M18,17.7L9.9,7.3c-0.4-0.6-1-0.9-1.5-0.4C7.6,7.7,6.3,9,5.6,9.8c-0.5,0.6-0.1,1.2,0.6,1.6L17.7,18
				C17.9,18.2,18.1,17.9,18,17.7z"/>
			<path class="st0" d="M21.1,0.8l3.1,8.8c0.1,0.2,0.4,0.2,0.4-0.1l0.1-9.2c0-0.2-0.1-0.3-0.3-0.3c-1,0-2.1,0.1-3.1,0.3
				C21.1,0.4,21,0.6,21.1,0.8z"/>
			<path class="st0" d="M14.3,26.8L1.1,24.3C0.5,24.2,0,24.6,0,25.1c-0.1,1.2,0,2.4,0.1,3.6c0.1,0.5,0.5,0.9,1.1,0.8l13.1-2.2
				C14.6,27.3,14.6,26.8,14.3,26.8z"/>
			<path class="st0" d="M15.5,22.4l-12-7.3c-0.4-0.2-1-0.1-1.2,0.4c-0.6,1.2-1,2.4-1.4,3.6c-0.2,0.5,0.2,1.1,0.7,1.2l13.7,2.6
				C15.6,22.8,15.7,22.5,15.5,22.4z"/>
		</g>
		<path class="st1" d="M23.6,20.5c-5.5,1.4-7.8,6.8-6.7,10.5c0.8,2.6,3.1,4.4,5.9,4.4c1.7,0,3.6-1.1,3.9-3c0.3-2-1.3-3.7-2.7-3.6
			c-1.2,0.1-1.9,1.1-1.9,1.7c0,0.6,0.4,1,0.8,1c0.3,0,0.5-0.1,0.6-0.5c0-0.1,0.1-0.1,0.2,0c0.1,0.2,0.2,0.8-0.4,1.1
			c-0.8,0.4-2.1-0.5-2.1-1.6c0-1.3,1.1-2.8,3.1-2.9c2.2,0,4.1,2.1,4.2,4.4c0.2,2.1-1.5,4.5-4.1,5.3c-2.4,0.7-5.5-0.1-8-2.1
			c-0.7-0.6-1.6-0.6-2.3-0.1L6,41.2c-0.1,0.1-0.1,0.2,0,0.3c4.1,4.2,9.8,6.6,15.4,6.5c0.2,0,0.4,0,0.6,0c8.8-0.5,16.8-7.6,15.7-16.8
			C37,24.5,31.1,18.6,23.6,20.5z"/>
	</g>
</g>
</svg>
