<?xml version="1.0" encoding="utf-8"?>
<!-- Generator: Adobe Illustrator 21.0.0, SVG Export Plug-In . SVG Version: 6.00 Build 0)  -->
<svg version="1.1"
	 id="svg8" inkscape:version="0.92.4 (5da689c313, 2019-01-14)" sodipodi:docname="snapchat new.svg" xmlns:cc="http://creativecommons.org/ns#" xmlns:dc="http://purl.org/dc/elements/1.1/" xmlns:inkscape="http://www.inkscape.org/namespaces/inkscape" xmlns:rdf="http://www.w3.org/1999/02/22-rdf-syntax-ns#" xmlns:sodipodi="http://sodipodi.sourceforge.net/DTD/sodipodi-0.dtd" xmlns:svg="http://www.w3.org/2000/svg"
	 xmlns="http://www.w3.org/2000/svg" xmlns:xlink="http://www.w3.org/1999/xlink" x="0px" y="0px" viewBox="0 0 200 200"
	 style="enable-background:new 0 0 200 200;" xml:space="preserve">
<style type="text/css">
	.st0{fill:#FFFC00;}
	.st1{fill:#FFFFFF;}
</style>
<sodipodi:namedview  bordercolor="#666666" borderopacity="1.0" id="base" inkscape:current-layer="layer2" inkscape:cx="77.801948" inkscape:cy="107.26741" inkscape:document-units="mm" inkscape:pageopacity="0.0" inkscape:pageshadow="2" inkscape:window-height="1017" inkscape:window-maximized="1" inkscape:window-width="1920" inkscape:window-x="-8" inkscape:window-y="176" inkscape:zoom="2.8" pagecolor="#ffffff" showgrid="false">
	</sodipodi:namedview>
<g id="layer1" transform="translate(-51.448719,-71.557488)" inkscape:groupmode="layer" inkscape:label="Layer 1">
	<g id="layer1-9" transform="matrix(0.26458333,0,0,0.26458333,31.72956,-43.303112)">
		<g id="g3646" transform="matrix(4.370655,0,0,-4.370655,325.04631,434.11881)">
			<path id="path3648" inkscape:connector-curvature="0" class="st0" d="M88.1,0c15.2,0,27.6-12.3,27.6-27.6v-117.8
				c0-15.2-12.3-27.6-27.6-27.6H-29.8c-15.2,0-27.6,12.3-27.6,27.6v117.8C-57.3-12.3-45,0-29.8,0L88.1,0z"/>
		</g>
		<g id="g3650" transform="matrix(4.370655,0,0,-4.370655,224.62439,685.45071)">
		</g>
		<g id="g3654" transform="matrix(4.370655,0,0,-4.370655,225.4015,482.85644)">
		</g>
	</g>
</g>
<g id="layer2" transform="translate(-51.448719,-71.557488)" inkscape:groupmode="layer" inkscape:label="Layer 2">
	<g id="g823" transform="matrix(0.05532529,0,0,0.05532529,62.544683,82.653856)">
		<g id="g819">
			<path id="path817" inkscape:connector-curvature="0" class="st1" d="M2825.8,2226.6c-10.7-35.3-61.6-60.1-61.6-60.1l0,0
				c-4.8-2.5-9.1-4.8-12.7-6.6c-85-41.1-160.3-90.6-223.7-146.6c-51-45.2-94.6-94.9-129.6-147.6c-42.9-64.4-62.9-118.2-71.5-147.4
				c-4.8-19-4.1-26.6,0-36.5c3.3-8.4,13.2-16.2,17.8-20c28.7-20.3,74.8-50.2,103.2-68.5c24.6-16,45.7-29.7,58.1-38.3
				c39.8-27.9,67.2-56.3,83.2-87c20.8-39.6,23.3-83.2,7.1-126.1c-21.8-57.8-75.8-92.3-144.6-92.3c-15.2,0-30.9,1.8-46.7,5.1
				c-39.3,8.6-76.6,22.6-107.8,34.8c-2.3,1-4.8-0.8-4.6-3.3c3.3-77.4,7.1-181.4-1.5-280c-7.6-89.3-26.1-164.6-56.1-230.3
				c-30.2-66-69.5-114.7-100.2-149.9c-29.2-33.5-80.7-82.9-158.3-127.3c-109.1-62.4-233.4-94.1-369.3-94.1
				c-135.7,0-259.7,31.7-369.1,94.1c-82.2,46.9-134.7,99.9-158.5,127.3c-30.7,35.3-70,84-100.2,149.9
				c-30.2,65.7-48.4,140.8-56.1,230.3c-8.6,99.2-5.1,194.8-1.5,280c0,2.5-2.3,4.3-4.8,3.3c-31.2-12.2-68.5-26.1-107.8-34.8
				c-15.5-3.3-31.2-5.1-46.7-5.1c-68.5,0-122.5,34.5-144.6,92.3c-16.2,42.9-13.7,86.5,7.1,126.1c16.2,30.7,43.4,59.1,83.2,87
				c12.2,8.6,33.5,22.3,58.1,38.3c27.6,18,72.5,47.2,101.5,67.2c3.6,2.5,15.7,11.7,19.5,21.3c4.1,10.1,4.8,17.8-0.5,38
				c-8.9,29.4-28.9,82.7-71,145.9c-35,53-78.6,102.5-129.6,147.6c-63.4,56.1-138.8,105.5-223.7,146.6c-4.1,2-8.9,4.3-14,7.4l0,0
				c0,0-50.7,25.9-60.4,59.4c-14.2,49.5,23.6,95.9,61.9,120.7c62.9,40.6,139.5,62.4,183.9,74.3c12.4,3.3,23.6,6.3,33.7,9.4
				c6.3,2,22.3,8.1,29.2,17c8.6,11.2,9.6,24.9,12.7,40.3l0,0c4.8,26.1,15.7,58.3,47.9,80.7c35.5,24.4,80.4,26.1,137.5,28.4
				c59.6,2.3,133.7,5.1,218.7,33.2c39.3,12.9,75.1,35,116.2,60.4c86.2,53,193.5,119,376.7,119c183.4,0,291.5-66.2,378.2-119.5
				c41.1-25.1,76.4-46.9,114.9-59.6c85-28.2,159-30.9,218.7-33.2c57.1-2.3,102-3.8,137.5-28.4c34.5-23.8,44.4-59.4,49-86
				c2.5-13.2,4.1-25.1,11.7-34.8c6.6-8.4,21.3-14.2,28.2-16.5c10.4-3.3,22.1-6.3,35-9.9c44.4-11.9,100.2-25.9,167.9-64.2
				C2828.8,2311.6,2834.4,2254.8,2825.8,2226.6L2825.8,2226.6z"/>
		</g>
		<path id="path821" inkscape:connector-curvature="0" d="M2896.3,2199.2c-18-49.2-52.5-75.3-91.6-97.2c-7.4-4.3-14.2-7.9-19.8-10.4
			c-11.7-6.1-23.6-11.9-35.5-18c-122-64.7-217.4-146.4-283.3-243c-22.3-32.7-37.8-62.1-48.7-86.2c-5.6-16.2-5.3-25.4-1.3-33.7
			c3-6.3,11.2-12.9,15.7-16.2c21.1-14,42.6-27.9,57.3-37.3c26.1-17,46.9-30.4,60.1-39.6c50.2-35,85.2-72.3,107-113.9
			c30.9-58.6,34.8-125.6,10.9-188.5c-33-87.3-115.7-141.5-215.6-141.5c-20.8,0-41.9,2.3-62.7,6.8c-5.6,1.3-10.9,2.5-16.2,3.8
			c1-59.4-0.5-122.8-5.8-184.7c-18.8-218.1-95.1-332.5-174.8-423.6c-33.2-38-91.1-93.6-177.8-143.3c-121-69.5-258-104.5-407.4-104.5
			c-148.9,0-285.9,35-406.9,104.3C1112.8,482.2,1055,538,1022,575.8c-79.6,91.1-156,205.5-174.8,423.6
			c-5.3,61.9-6.6,125.3-5.8,184.7c-5.3-1.3-10.9-2.5-16.2-3.8c-20.8-4.6-42.1-6.8-62.7-6.8c-99.9,0-182.6,54.3-215.6,141.5
			c-23.8,62.9-20,129.9,10.9,188.5c21.8,41.6,57.1,78.9,107,113.9c13.4,9.4,34,22.8,60.1,39.6c14.2,9.1,34.8,22.6,55,36
			c3,2,14,10.1,17.8,17.8c4.3,8.6,4.3,18-2,35.3c-10.7,23.6-26.1,52.5-47.9,84.5c-64.7,94.6-157.3,174.8-275.2,238.7
			c-62.7,33.2-127.6,55.3-155,129.9c-20.8,56.3-7.1,120.5,45.4,174.5l0,0c17.2,18.5,39.1,35,66.5,50.2
			c64.4,35.5,119.2,53,162.3,64.9c7.6,2.3,25.1,7.9,32.7,14.7c19.3,16.7,16.5,42.1,42.1,79.1c15.5,23.1,33.2,38.8,47.9,49
			c53.5,37,113.9,39.3,177.8,41.9c57.6,2.3,123,4.8,197.6,29.4c30.9,10.1,63.2,29.9,100.2,52.8c89.3,55,211.8,130.1,416.5,130.1
			c205,0,328-75.6,418-130.6c37-22.6,69-42.4,98.9-52.3c74.6-24.6,140-27.1,197.6-29.4c63.9-2.5,124-4.8,177.8-41.9
			c16.7-11.7,38-30.7,54.8-59.6c18.3-31.2,18-53.3,35.3-68.2c7.1-6.1,22.6-11.4,30.9-14c43.4-11.9,98.9-29.4,164.6-65.7
			c29.2-16,51.7-33.5,69.8-53.5c0.3-0.3,0.5-0.5,0.8-0.8C2904.1,2316.4,2916.6,2254.3,2896.3,2199.2L2896.3,2199.2z M2714.4,2296.9
			c-111.1,61.4-184.9,54.8-242.2,91.6c-48.7,31.5-20,99.2-55.3,123.5c-43.6,30.2-172.2-2-338.4,52.8
			c-137,45.4-224.5,175.5-471.3,175.5c-247.3,0-332.3-129.6-471.3-175.5c-166.1-54.8-295-22.6-338.4-52.8
			c-35.3-24.4-6.6-92.1-55.3-123.5c-57.3-37-131.1-30.4-242.2-91.6c-70.8-39.1-30.7-63.2-7.1-74.6
			c402.3-194.6,466.2-495.4,469.3-518c3.6-26.9,7.4-48.2-22.3-75.8c-28.7-26.6-156.3-105.5-191.5-130.1
			c-58.6-40.8-84.2-81.7-65.2-131.9c13.2-34.8,45.7-47.7,79.9-47.7c10.7,0,21.6,1.3,32,3.6c64.2,14,126.6,46.2,162.6,54.8
			c5.1,1.3,9.4,1.8,13.2,1.8c19.3,0,25.9-9.6,24.6-31.7c-4.1-70.3-14.2-207.2-3-335.3c15.2-176,72-263.3,139.5-340.7
			c32.5-37,184.7-197.9,475.6-197.9c291.7,0,443.1,160.8,475.6,197.9c67.5,77.1,124.3,164.4,139.5,340.7
			c11.2,128.1,1.5,265.1-3,335.3c-1.5,23.1,5.6,31.7,24.6,31.7c3.8,0,8.4-0.5,13.2-1.8c36-8.6,98.4-40.8,162.6-54.8
			c10.4-2.3,21.3-3.6,32-3.6c34.2,0,66.7,13.2,79.9,47.7c19,50.2-6.8,91.1-65.2,131.9c-35.3,24.6-162.9,103.5-191.5,130.1
			c-29.7,27.4-25.9,48.7-22.3,75.8c2.8,22.6,67,323.4,469.3,518C2744.8,2233.7,2785.2,2257.8,2714.4,2296.9z"/>
	</g>
</g>
</svg>
