<?xml version="1.0" encoding="utf-8"?>
<!-- Generator: Adobe Illustrator 21.0.0, SVG Export Plug-In . SVG Version: 6.00 Build 0)  -->
<svg version="1.1" id="Layer_1" xmlns="http://www.w3.org/2000/svg" xmlns:xlink="http://www.w3.org/1999/xlink" x="0px" y="0px"
	 viewBox="0 0 100 28" style="enable-background:new 0 0 100 28;" xml:space="preserve">
<style type="text/css">
	.st0{fill:#13143C;}
	.st1{fill:#D1C5C3;}
</style>
<g transform="translate(-1.501 -2)">
	<g transform="translate(1.501 21.896)">
		<path class="st0" d="M97.9,0h-0.8c-0.4,1.5-0.7,1.7-1.8,1.9v0.5h1v4.4c0,0.8,0.4,1.3,1.6,1.3c0.7,0,1.4-0.1,2.1-0.3V7.3
			c-0.2,0-0.6,0-0.7,0c-0.9,0-1.3-0.3-1.3-0.9V2.3h2.1V1.6h-2.1L97.9,0L97.9,0z"/>
		<path class="st0" d="M64.3,2.7c0-0.4,0.3-0.8,0.7-0.8c0,0,0.1,0,0.1,0c0.6,0,1.1,0.5,1.1,1.1c0,0,0,0,0,0c0.1,0,0.3,0.1,0.4,0.1
			c0.4,0,0.7-0.3,0.7-0.6c0,0,0,0,0,0c0-0.7-1-1-1.9-1c-1.1,0-2.5,0.5-2.5,1.8c0,2,3.2,1.9,3.2,3.4c0,0.5-0.4,1-1,1c0,0-0.1,0-0.1,0
			c-0.8,0-1.1-0.7-1.2-1.5c-0.6,0-1.1,0.3-1.1,0.8c0,0.8,1,1.2,2.1,1.2c1.5,0,2.7-0.8,2.7-2C67.6,4,64.3,4.1,64.3,2.7z"/>
		<path class="st0" d="M57.5,7V3.2c0.1-0.9-0.6-1.8-1.6-1.8c-0.1,0-0.1,0-0.2,0c-0.8,0.1-1.6,0.4-2.1,1v-1l-2.4,0.5v0.2l0.5,0.2
			c0.3,0.2,0.3,0.3,0.3,0.7v4c0,0.2-0.1,0.4-0.3,0.5l-0.5,0.2v0.2h3.2V7.7l-0.5-0.2c-0.2-0.1-0.3-0.3-0.3-0.5V2.8
			c0.4-0.3,0.9-0.4,1.3-0.5c0.7,0,1,0.4,1,1.1V7c0,0.2-0.1,0.4-0.3,0.5L55,7.7v0.2h3.2V7.7l-0.5-0.2C57.5,7.4,57.4,7.2,57.5,7z"/>
		<path class="st0" d="M1.6,0.6c0-0.7,0.6-1.2,1.2-1.2c0,0,0.1,0,0.1,0c1.2,0,1.6,1.1,1.9,1.8h0.5v-2C4.6-1,3.8-1.2,3.1-1.2
			C1.5-1.2,0-0.2,0,1.2c0,2.5,4.1,2.5,4.1,4.7c0,0.9-0.7,1.6-1.6,1.6c0,0,0,0,0,0c-1.2,0-1.7-1.2-1.9-2H0.1v2.3
			C0.9,8,1.7,8.1,2.6,8.1c1.7,0,3.3-1,3.3-2.8C5.9,2.6,1.6,2.5,1.6,0.6z"/>
		<path class="st0" d="M8.9,6.9v-8.3L6.5-0.8v0.3l0.5,0.2C7.3-0.2,7.3,0,7.3,0.3v6.6c0,0.2-0.1,0.4-0.3,0.5L6.5,7.7v0.2h3.2V7.7
			L9.2,7.4C9,7.4,8.9,7.2,8.9,6.9z"/>
		<path class="st0" d="M10.7,1.8l0.4,0.3c0.1,0.1,0.2,0.2,0.2,0.2c0,0.1-0.1,0.2-0.2,0.3l-2,2L10.6,7c0.5,0.8,0.5,0.8,1.6,0.8h1.1
			V7.7c-0.4-0.2-0.7-0.4-0.9-0.8l-2.1-2.9L12,2.6c0.4-0.3,0.9-0.6,1.4-0.8V1.6h-2.7L10.7,1.8L10.7,1.8z"/>
		<path class="st0" d="M19.1,6.6V3c0-1.2-1-1.7-2.2-1.7c-1.3,0-2.6,0.6-2.6,1.4c0,0.4,0.3,0.7,0.7,0.7c0,0,0.1,0,0.1,0
			c0.2,0,0.3,0,0.5-0.1c0-0.1,0-0.2,0-0.3c0-0.6,0.2-1.2,1-1.2c0.7,0,1,0.5,1,1.2v1.5h-0.9c-2.1,0-2.8,0.5-2.8,1.8
			C13.7,7.2,14.3,8,15.1,8c0.1,0,0.2,0,0.3,0c0.8,0,1.5-0.3,2.1-0.7c0,0.5,0.3,0.7,0.7,0.7c0.6,0,1.2-0.1,1.8-0.3V7.5l-0.6-0.2
			C19.1,7.2,19.1,7,19.1,6.6z M17.5,7c-0.3,0.1-0.6,0.2-1,0.2c-0.7,0-1.2-0.3-1.2-1.1c0-0.5,0.2-1.1,1.4-1.1h0.8
			C17.5,5,17.5,7,17.5,7z"/>
		<path class="st0" d="M76.3,1.4c-1.8,0-3.2,1.1-3.2,3.4C73,6.5,74.2,7.9,75.8,8c0.2,0,0.3,0,0.5,0c0.9,0,1.8-0.3,2.5-0.9V6.8
			c-0.6,0.3-1.2,0.4-1.8,0.4c-1.2,0-2.1-0.7-2.1-2.7V4.4h4V4c0.1-1.3-0.8-2.5-2.1-2.6C76.6,1.4,76.4,1.4,76.3,1.4z M77.3,4h-2.5
			c0-1.2,0.3-2.1,1.3-2.1c0.9,0,1.2,0.7,1.2,1.7L77.3,4z"/>
		<path class="st0" d="M83.9,1.4C83.1,1.6,82.4,2,82,2.6V1.4l-2.4,0.5v0.2L80,2.3c0.3,0.2,0.3,0.3,0.3,0.7v3.9
			c0,0.2-0.1,0.4-0.3,0.5l-0.5,0.2v0.2H83V7.7l-0.7-0.3c-0.2-0.1-0.3-0.3-0.3-0.5V3.1c0.3-0.3,0.6-0.5,0.9-0.6
			c0.3,0,0.4,0.7,1.1,0.7c0.5,0,0.8-0.4,0.8-0.9C84.8,1.8,84.4,1.4,83.9,1.4z"/>
		<path class="st0" d="M92.2,1.4c-1.8,0-3.2,1.1-3.2,3.4c-0.1,1.6,1.1,3.1,2.7,3.2c0.2,0,0.3,0,0.5,0c0.9,0,1.8-0.3,2.5-0.9V6.8
			c-0.6,0.3-1.2,0.4-1.8,0.4c-1.2,0-2.1-0.7-2.1-2.7V4.4h4V4c0.1-1.3-0.8-2.5-2.1-2.6C92.5,1.4,92.3,1.4,92.2,1.4z M93.2,4h-2.5
			c0-1.2,0.3-2.1,1.3-2.1c0.9,0,1.2,0.7,1.2,1.7V4z"/>
		<path class="st0" d="M32.6,1.4c-1.8,0-3.2,1.1-3.2,3.4c-0.1,1.6,1.1,3.1,2.7,3.2c0.2,0,0.3,0,0.5,0c0.9,0,1.8-0.3,2.5-0.9V6.8
			c-0.6,0.3-1.2,0.4-1.8,0.4c-1.2,0-2.1-0.7-2.1-2.7V4.4h4V4c0.1-1.3-0.8-2.5-2.1-2.6C32.9,1.4,32.8,1.4,32.6,1.4z M33.6,4h-2.5
			c0-1.2,0.3-2.1,1.3-2.1c0.9,0,1.2,0.7,1.2,1.7V4z"/>
		<path class="st0" d="M45.8,7V3.2c0.1-0.9-0.5-1.7-1.4-1.8c-0.1,0-0.1,0-0.2,0c-0.8,0.1-1.6,0.4-2.1,1l-0.1,0.1
			c-0.2-0.7-0.8-1.1-1.5-1.1c-0.8,0.1-1.6,0.4-2.1,1v-1l-2.4,0.5v0.2l0.5,0.2c0.3,0.2,0.3,0.3,0.3,0.7v4c0,0.2-0.1,0.4-0.3,0.5
			l-0.5,0.2v0.2h3.2V7.7l-0.5-0.2c-0.2-0.1-0.3-0.3-0.3-0.5V2.8c0.4-0.3,0.9-0.4,1.3-0.5c0.6,0,0.8,0.4,0.8,1.1V7
			c0,0.2-0.1,0.4-0.3,0.5l-0.5,0.2v0.2h3.2V7.7l-0.5-0.2C42.1,7.4,42,7.2,42,7V3.2c0-0.2,0-0.3,0-0.5c0.4-0.3,0.9-0.4,1.4-0.5
			c0.6,0,0.8,0.4,0.8,1.1V7c0,0.2-0.1,0.4-0.3,0.5l-0.5,0.2v0.2h3.2V7.7l-0.5-0.2C45.9,7.4,45.8,7.2,45.8,7z"/>
		<path class="st0" d="M49.7,7V1.4l-2.4,0.5v0.3l0.5,0.2C48,2.5,48.1,2.7,48.1,3V7c0,0.2-0.1,0.4-0.3,0.5l-0.5,0.2v0.2h3.2V7.7
			l-0.5-0.2C49.8,7.4,49.6,7.2,49.7,7z"/>
		<path class="st0" d="M47.9-0.7c0,0.5,0.4,0.9,0.9,0.9c0.5,0,0.9-0.4,0.9-0.9c0-0.5-0.4-0.9-0.9-0.9C48.3-1.7,47.9-1.2,47.9-0.7z"
			/>
		<path class="st0" d="M61.3,7V1.4l-2.4,0.5v0.3l0.5,0.2c0.3,0.2,0.3,0.3,0.3,0.7V7c0,0.2-0.1,0.4-0.3,0.5l-0.5,0.2v0.2h3.2V7.7
			l-0.5-0.2C61.4,7.4,61.3,7.2,61.3,7z"/>
		<path class="st0" d="M60.4,0.2c0.5,0,0.9-0.4,0.9-0.9S61-1.7,60.4-1.7c-0.5,0-0.9,0.4-0.9,0.9C59.5-0.2,59.9,0.2,60.4,0.2z"/>
		<path class="st0" d="M87.7,7V1.4l-2.4,0.5v0.3l0.5,0.2c0.3,0.2,0.3,0.3,0.3,0.7V7c0,0.2-0.1,0.4-0.3,0.5l-0.5,0.2v0.2h3.2V7.7
			L88,7.5C87.8,7.4,87.7,7.2,87.7,7z"/>
		<path class="st0" d="M86.8,0.2c0.5,0,0.9-0.4,0.9-0.9c0-0.5-0.4-0.9-0.9-0.9c-0.5,0-0.9,0.4-0.9,0.9c0,0,0,0,0,0
			C85.9-0.2,86.3,0.2,86.8,0.2z"/>
		<path class="st0" d="M27.1,0h-0.8c-0.2,1.7-0.7,1.7-1.8,1.7h-1.9V0h-0.8c-0.2,1.7-0.7,1.7-1.8,1.9v0.5h1v4.4
			c0,0.9,0.4,1.3,1.6,1.3c0.7,0,1.4-0.1,2.1-0.3V7.3c-0.2,0-0.6,0-0.7,0c-0.9,0-1.3-0.3-1.3-0.9V2.3h2.9v4.4c0,0.8,0.4,1.3,1.6,1.3
			c0.7,0,1.4-0.1,2.1-0.3V7.3c-0.2,0-0.6,0-0.7,0c-0.9,0-1.3-0.3-1.3-0.9V2.3h2.1V1.6h-2.1V0z"/>
		<path class="st0" d="M70.7,0h-0.8c-0.4,1.5-0.7,1.7-1.8,1.9v0.5h1v4.4c0,0.8,0.4,1.3,1.6,1.3c0.7,0,1.4-0.1,2.1-0.3V7.3
			c-0.2,0-0.6,0-0.7,0c-0.9,0-1.3-0.3-1.3-0.9V2.3h2.1V1.6h-2.1L70.7,0L70.7,0z"/>
	</g>
	<g transform="translate(46.438 2)">
		<path class="st1" d="M-1.9,12.1H-1c0.1-0.5,0.1-1.1-0.1-1.6C-1.5,9.9-2,9.4-2.5,9c-0.4-0.3-0.7-0.7-0.7-1.2c0-0.6,0.4-1.1,0.9-1.1
			c0,0,0.1,0,0.1,0c0.2,0,0.3,0,0.4,0.1c0.1-0.3,0.2-0.6,0.4-0.8c-0.3-0.1-0.5-0.1-0.8-0.1c-1.1,0-1.9,0.8-2,1.9c0,0,0,0,0,0
			c0.1,0.8,0.5,1.5,1.1,2C-2.3,10.4-1.9,11.2-1.9,12.1z"/>
		<rect x="-1.9" y="12.8" class="st1" width="11.6" height="0.8"/>
		<rect x="-1.9" y="14.3" class="st1" width="11.6" height="0.8"/>
		<path class="st1" d="M0.6,12.1h0.9c0.2-0.6,0.2-1.2,0.2-1.8C1.3,9.6,0.8,9.1,0.3,8.6c-0.4-0.3-0.6-0.8-0.6-1.3
			c0-0.6,0.5-1.1,1.1-1.1c0,0,0,0,0,0c0.8,0,1.2,0.7,2.1,0.7V6.1C2.4,6,1.8,5.4,0.8,5.4C0.2,5.4-0.3,5.6-0.7,6
			C-1,6.3-1.2,6.8-1.2,7.3c0,0.7,0.3,1.3,0.8,1.8C0.3,9.9,0.6,11,0.6,12.1z"/>
		<path class="st1" d="M10,6.7c0.6,0,1,0.4,1.1,1c0,0,0,0.1,0,0.1C11,8.3,10.8,8.7,10.4,9c-0.5,0.4-1,0.9-1.4,1.5
			c-0.1,0.5-0.2,1.1-0.1,1.6h0.8c0.1-0.9,0.5-1.8,1.2-2.3c0.6-0.5,1-1.2,1.1-2c0-1.1-0.8-2-1.9-2c0,0,0,0,0,0c-0.3,0-0.5,0-0.8,0.1
			c0.2,0.2,0.3,0.5,0.4,0.8C9.7,6.7,9.9,6.7,10,6.7z"/>
		<path class="st1" d="M4.9,6.9c0.9,0,1.4-0.7,2.1-0.7c0.6,0,1.1,0.4,1.1,1c0,0,0,0,0,0c0,0.5-0.2,0.9-0.6,1.3
			c-0.6,0.5-1,1.1-1.4,1.7c-0.1,0.6,0,1.2,0.2,1.8h0.9c-0.1-1.1,0.3-2.2,1-3C8.7,8.6,9,8,9,7.3c0-0.5-0.2-1-0.5-1.4
			C8.1,5.6,7.6,5.4,7.1,5.4C6,5.4,5.5,6,4.9,6.1L4.9,6.9z"/>
		<path class="st1" d="M3.5,5.4v2.5l0,0c0,0.9-0.2,1.7-0.4,2.5c0,0.7,0.3,0.9,0.4,1.6l0,0h0.9l0,0c0.1-0.7,0.4-1,0.4-1.6
			C4.5,9.6,4.4,8.8,4.4,7.9c0,0,0,0,0,0V5.4H3.5z"/>
		<path class="st1" d="M3.5,2.6c-0.6,0.2-1,0.9-0.7,1.5c0.2,0.6,0.9,1,1.5,0.8c0.6-0.2,1-0.9,0.7-1.5C4.9,3,4.7,2.7,4.3,2.6V1.7h0.9
			V0.9H4.3V0H3.5v0.9H2.7v0.8h0.9V2.6z M3.9,3.3c0.3,0,0.5,0.2,0.5,0.5S4.2,4.2,3.9,4.2C3.7,4.2,3.5,4,3.5,3.7
			C3.5,3.5,3.7,3.3,3.9,3.3L3.9,3.3z"/>
	</g>
</g>
</svg>
