<?xml version="1.0" encoding="utf-8"?>
<!-- Generator: Adobe Illustrator 21.0.0, SVG Export Plug-In . SVG Version: 6.00 Build 0)  -->
<svg version="1.1"
	 id="Layer_1" xmlns:cc="http://creativecommons.org/ns#" xmlns:dc="http://purl.org/dc/elements/1.1/" xmlns:rdf="http://www.w3.org/1999/02/22-rdf-syntax-ns#"
	 xmlns="http://www.w3.org/2000/svg" xmlns:xlink="http://www.w3.org/1999/xlink" x="0px" y="0px" viewBox="0 0 150 30"
	 style="enable-background:new 0 0 150 30;" xml:space="preserve">
<style type="text/css">
	.st0{fill:#FFCB08;}
	.st1{fill:#009743;stroke:#009743;stroke-width:0.1676;}
</style>
<g transform="matrix(.5 0 0 .5 .71444 .93895)">
	<path class="st0" d="M33.6,4.2c-10.4-0.1-11,0-14.4,1.7c-0.8,0.4-1.7,0.9-2,1.1c-1,0.7-2.8,2.5-2.8,2.8c0,0.1-0.1,0.3-0.1,0.3
		c-0.3,0-1.8,2.7-1.8,3.3c0,0.2-0.1,0.5-0.1,0.5c-0.4,0.5-0.6,4.6-0.2,6.4c0.1,0.6,0.3,1.4,0.3,1.7c0.1,0.6,0.7,1.8,1.3,2.7
		c0.2,0.3,0.4,0.7,0.5,0.8c0.3,0.5,2.6,2.6,3.5,3.3c1.3,0.9,2.9,1.9,3.3,2c0.2,0.1,0.9,0.4,1.5,0.8c0.7,0.4,1.5,0.8,1.8,0.9
		c0.3,0.1,1.4,0.7,2.5,1.2c5.5,2.7,6,3,6.5,3.8c0.5,0.8,0.5,1.7,0,2.4c-0.2,0.3-0.4,0.5-0.6,0.5c-0.1,0-0.3,0.1-0.3,0.2
		c-0.1,0.2-11.5,0.1-17.1-0.1l-2.5-0.1v-3c0-2.5,0-3-0.2-3c-0.1,0-0.2,0.1-0.2,0.1c0,0.1-0.1,0.1-0.2,0.1c-0.2,0-1.6,1.2-1.8,1.5
		c-0.1,0.1-0.3,0.3-0.5,0.4c-0.2,0.1-0.8,0.5-1.2,0.9c-0.4,0.4-1,0.9-1.4,1.1c-0.3,0.2-0.6,0.5-0.7,0.5c-0.1,0.2-1.4,1.3-1.5,1.3
		c-0.1,0-0.3,0.2-0.5,0.5c-0.2,0.2-1.1,1-1.8,1.6c-0.8,0.6-1.5,1.3-1.7,1.4s-0.5,0.4-0.8,0.6c-0.3,0.2-0.8,0.7-1.2,1.1l-0.8,0.7
		l0.8,0.8c0.5,0.4,0.9,0.8,0.9,0.8c0.1,0,0.6,0.4,1.1,1c0.6,0.5,1.1,1,1.2,1c0.1,0,0.2,0.1,0.3,0.2c0.1,0.1,0.5,0.5,0.9,0.8
		c0.4,0.3,0.9,0.7,1,0.8c0.1,0.1,0.7,0.6,1.1,1c0.5,0.4,1.1,0.9,1.4,1.2c0.3,0.2,0.8,0.6,1,0.9c0.3,0.3,0.7,0.6,1,0.8
		c0.3,0.2,0.9,0.7,1.3,1.1c0.4,0.4,0.9,0.8,1,0.8c0.1,0,0.3,0.2,0.5,0.4c0.6,0.8,0.6,0.6,0.7-2.7l0-3.1l0.6,0c0.3,0,3.8,0,7.7,0
		c5,0,7.1,0.1,7.1,0.2c0,0.2,4.2,0.1,6.3-0.2c1.7-0.2,3.8-0.6,4.1-0.8c0.1-0.1,0.5-0.2,0.9-0.4c0.4-0.2,0.8-0.4,0.9-0.4
		c0.1-0.2,1.1-0.7,1.3-0.7c0.1,0,0.4-0.2,0.6-0.4c0.3-0.2,0.7-0.6,1-0.8c0.6-0.5,2-2.3,2.5-3.1c0.4-0.8,1.1-2.9,1.3-4.2
		c0.4-2.5,0.2-5.8-0.7-7.8c-0.2-0.5-0.4-0.9-0.4-1c0-0.1-0.7-1.2-0.9-1.4c-0.1-0.1-0.4-0.5-0.8-1c-0.4-0.5-0.8-0.9-0.9-1
		c-0.3-0.1-0.5-0.3-1.3-1.1c-0.2-0.2-0.6-0.5-0.9-0.6c-0.3-0.1-0.7-0.4-1-0.6c-0.3-0.2-0.5-0.4-0.6-0.4c-0.1,0-0.4-0.2-0.8-0.5
		c-0.4-0.3-0.8-0.5-0.9-0.5c-0.2,0-1.3-0.6-1.3-0.7c0-0.1-0.1-0.1-0.2-0.1c-0.1,0-0.2-0.1-0.2-0.1c0-0.1-0.1-0.1-0.2-0.1
		c-0.1,0-0.6-0.2-1-0.4c-2.2-1.1-3.3-1.7-3.4-1.7c-0.1,0-0.3-0.1-0.5-0.3c-0.2-0.1-0.5-0.3-0.8-0.4c-0.2-0.1-1-0.4-1.8-0.9
		c-0.8-0.4-1.6-0.9-1.9-1.1c-0.3-0.2-0.7-0.5-1-0.7c-0.4-0.4-0.4-0.5-0.4-1.4c0-0.9,0-1,0.4-1.3c0.2-0.2,0.6-0.4,0.9-0.4
		c0.2,0,4.4,0,9.3,0l8.8,0.1l0-5.7l0-5.7l-1.6-0.1C42.5,4.3,38.1,4.2,33.6,4.2L33.6,4.2z M50.1,4.2l0,18.4c0,16.4,0.1,18.5,0.3,19.1
		c0.4,1.3,0.8,2.3,1.2,3c0.2,0.4,0.4,0.7,0.4,0.8c0,0.5,3.5,4.2,4,4.2c0,0,0.3,0.2,0.7,0.4c1.5,1,2.1,1.3,3.7,1.8
		c1.8,0.6,3.4,1,5.1,1.2c1.7,0.2,6,0.2,7.6,0c2.3-0.4,4.1-0.8,5.3-1.4c0.2-0.1,0.5-0.2,0.6-0.2c0.3,0,2.4-1.1,2.8-1.5
		c0.1-0.1,0.5-0.4,0.8-0.5c0.6-0.3,2.9-2.4,3.2-3c0.1-0.2,0.3-0.5,0.5-0.7c0.4-0.4,1.3-2.1,1.5-2.8c0.1-0.3,0.3-1.1,0.5-1.8l0.3-1.2
		l0-18l0-18h-7h-7v17.2c0,10.6,0,17.3-0.1,17.5c-0.2,0.4-1.1,1.4-1.3,1.4c-0.1,0-0.3,0.1-0.4,0.2c-0.5,0.5-1.6,0.7-3.5,0.7h-1.9
		l-1.1-0.5c-1.1-0.5-1.4-0.8-1.9-1.8L64,38.3v-17v-17h-7L50.1,4.2L50.1,4.2z M93,4.2v24v24l12.6,0c12.8,0,14.1,0,15.7-0.5
		c0.3-0.1,0.6-0.1,0.8-0.1c0.4,0,1.6-0.5,2.7-1.1c0.3-0.2,0.9-0.5,1.3-0.7c0.6-0.3,1.4-1,2.6-2.2c0.4-0.4,1.2-1.5,1.6-2.3
		c0.4-0.6,1.2-3,1.4-4.2c0.2-1,0.3-3.6,0.2-4.9c-0.1-1-0.7-3.2-0.9-3.5c-0.1-0.1-0.2-0.4-0.3-0.7c-0.3-0.8-1.9-2.8-3-3.7
		c-0.3-0.2-0.7-0.5-0.8-0.7c-0.2-0.2-0.6-0.4-0.9-0.5c-0.3-0.1-0.5-0.3-0.5-0.3c0-0.1,0.7-0.7,0.8-0.7c0.1,0,2.2-2.1,2.2-2.2
		c0-0.1,0.1-0.3,0.3-0.5c0.4-0.6,1.2-2.1,1.4-2.7c0.1-0.3,0.2-0.6,0.3-0.7c0.1-0.1,0.1-1.1,0.1-2.8c0-2.4,0-2.7-0.4-3.7
		c-0.4-1.3-1.3-3.3-1.8-3.9c-0.9-1.1-1.9-2.1-2.6-2.6c-1.1-0.8-2.9-1.7-4.3-2.1c-2.2-0.7-3.6-0.8-16.6-0.8L93,4.2L93,4.2z
		 M106.8,14.7l3.8,0c4.1,0,4.1,0,5,0.9c1,0.9,1.5,2.9,1,5.1c-0.2,0.7-1.1,2-1.7,2.3c-0.5,0.3-0.7,0.3-4.4,0.3l-3.8,0V19V14.7
		L106.8,14.7z M106.9,32.6c0.1,0,2,0,4.4,0l4.3,0.1l0.6,0.4c0.3,0.2,0.8,0.7,1.1,1.2l0.5,0.8l0,2c0,1.8,0,2-0.3,2.7
		c-0.2,0.4-0.4,0.7-0.5,0.7c-0.1,0-0.2,0.1-0.3,0.2c-0.1,0.3-1,0.8-1.7,1c-0.4,0.1-2,0.2-4.4,0.2h-3.8v-4.5
		C106.8,34.7,106.8,32.6,106.9,32.6L106.9,32.6z"/>
	<path class="st1" d="M284.5-1.9c-0.1,0.1-0.1,0.7-0.1,2.8l0,3L279,4c-5.2,0-5.9,0-8.2,0.5c-1.9,0.3-4,1.6-5.2,3.2
		c-1,1.3-1.7,2.7-2.2,5c-0.1,0.2-0.1,2.9-0.2,6c-0.1,6.1-0.1,5.8-1,7c-0.8,1-2.6,1.6-4.6,1.6c-1,0-2.7-0.4-3.2-0.8
		c-0.7-0.5-1.5-1.3-1.7-1.7c-0.1-0.3-0.2-3.4-0.2-10.4l-0.1-10l-6.9,0l-6.9,0l0,10.6c0,5.8,0.1,11,0.1,11.5c0.1,1,0.7,3,1.1,3.9
		c0.8,1.8,2.7,4,4.4,5.2c0.4,0.3,0.9,0.7,1.1,0.8c0.1,0.1,0.4,0.3,0.6,0.3c0.2,0,0.6,0.2,0.9,0.4c0.6,0.4,2.4,1.1,3.3,1.4l0.6,0.2
		v6.9v6.9h7h7v-6.9v-6.9l1.1-0.4c1.6-0.6,4.7-2.1,5.6-2.8c1.1-0.9,2.8-2.7,3.3-3.4c0.6-1,1.5-3,1.7-4c0.4-1.5,0.5-3.3,0.5-7.3
		c0-2.1,0-4,0.1-4.2c0.1-0.5,0.8-0.6,4.2-0.5l3.1,0l0,3c0,1.8,0.1,3,0.2,3c0.1,0,0.1-0.1,0.1-0.1s0.1-0.1,0.2-0.1
		c0.1,0,0.6-0.4,1.2-1c0.6-0.5,1.1-0.9,1.1-0.9s0.5-0.3,0.9-0.8c0.4-0.4,1-0.9,1.3-1.1c0.3-0.2,0.8-0.7,1.3-1.1
		c0.4-0.4,0.9-0.8,0.9-0.8c0.1,0,0.4-0.3,0.8-0.6c0.9-0.8,3.4-2.9,4.2-3.5c0.3-0.2,0.9-0.7,1.3-1.1l0.7-0.7l-0.9-0.9
		c-0.5-0.5-1-0.9-1.1-0.9c-0.1,0-0.3-0.1-0.4-0.3c-0.1-0.2-0.6-0.6-1-0.9c-0.4-0.4-0.9-0.8-1.1-0.9c-0.1-0.1-0.9-0.8-1.7-1.4
		c-0.8-0.6-1.6-1.4-1.8-1.6c-0.2-0.2-0.5-0.4-0.5-0.4c-0.1,0-0.6-0.4-1.1-0.9c-0.6-0.5-1.1-0.9-1.1-0.9c-0.1,0-0.5-0.3-0.9-0.8
		c-0.4-0.4-1-0.9-1.3-1.1c-0.3-0.2-0.6-0.5-0.8-0.6C284.6-1.8,284.6-1.9,284.5-1.9L284.5-1.9z M216.5,2.8c-0.8,0-1.7,0-2.5,0.1
		c-2.6,0.2-5.2,0.8-6.8,1.4c-0.3,0.1-0.6,0.2-0.7,0.2c-0.3,0-2.2,1-2.9,1.5c-0.3,0.2-0.6,0.4-0.7,0.4c-0.1,0-0.4,0.2-0.6,0.4
		c-0.3,0.2-0.8,0.8-1.3,1.2c-0.5,0.4-0.8,0.8-0.8,0.9c0,0.1-0.2,0.4-0.5,0.8c-0.9,1.1-1.2,1.7-1.7,3.2c-1,2.8-1,1.7-1,21.6v17.8h6.9
		h6.9v-6.9v-6.9h5.3h5.3v6.9v6.9h6.9h6.9V34.6c0-15.4,0-17.9-0.2-19c-0.3-1.9-1.4-4.7-2.1-5.4c-0.1-0.1-0.5-0.6-0.8-1.1
		c-0.3-0.4-0.7-0.9-0.9-1c-0.2-0.1-0.6-0.5-1-0.9c-0.4-0.4-0.8-0.7-1-0.8c-0.1,0-0.5-0.3-0.9-0.5c-0.8-0.6-2.2-1.3-2.9-1.5
		c-0.3-0.1-1.1-0.3-1.8-0.5C221.6,3.2,219,2.8,216.5,2.8L216.5,2.8z M192.7,4.2l-6.9,0l-6.9,0l-0.1,17.2l-0.1,17.2l-0.4,0.6
		c-0.4,0.8-0.5,0.8-1.5,1.2c-1.6,0.6-4.2,0.3-5.1-0.6c-0.2-0.2-0.4-0.6-0.6-0.9c-0.2-0.5-0.2-1.3-0.2-17.5c0-9.3,0-17.1-0.1-17.2
		c-0.1-0.2-0.8-0.2-6.9-0.2h-6.8v17c0,10.6,0,17.2-0.1,17.5c-0.3,1.2-1.4,2-3.1,2.2c-1,0.1-2.3,0-3-0.3c-0.2-0.1-0.5-0.2-0.6-0.2
		c-0.2,0-0.7-0.6-1-1.2c-0.2-0.6-0.3-1.2-0.3-17.6c0-9.3,0-17,0-17.1c0-0.1-1.5-0.2-6.9-0.2h-6.9v17.6c0,19.4,0,18.7,0.8,21.3
		c0.7,2.3,1.7,3.8,3.4,5.5c0.6,0.6,1.1,1,1.1,1c0.1,0,0.5,0.3,1,0.6c1.2,0.8,1.4,0.9,3.1,1.5c1.7,0.6,2.8,0.9,4.4,1.1h0
		c1.6,0.2,5.3,0.2,6.7,0c1.7-0.3,4.5-1.2,5.5-1.8c0.2-0.1,0.7-0.5,1.1-0.7c1.2-0.9,1.6-1,1.9-0.8c0.2,0.1,0.3,0.2,0.4,0.3
		c0.2,0.2,2.6,1.6,2.9,1.7c0.2,0,0.5,0.1,0.7,0.2c0.7,0.3,2.3,0.8,3.4,1c1.6,0.4,6.4,0.4,8.1,0c1.3-0.3,2.8-0.7,3.5-1
		c0.2-0.1,0.6-0.2,0.9-0.3c0.3-0.1,0.7-0.3,1-0.5s0.9-0.6,1.4-0.9c0.5-0.3,1.4-1,1.9-1.5c1.1-1.1,2.5-2.9,2.5-3.2
		c0-0.1,0.2-0.5,0.3-0.8c0.4-0.7,0.9-2.1,1.2-3.5c0.2-0.9,0.2-2.5,0.3-18.9L192.7,4.2L192.7,4.2z M215.5,14.9c0.4,0,0.7,0,1.2,0
		c1.3,0.1,1.6,0.1,2.5,0.5c1.3,0.6,1.5,0.8,1.9,1.9l0.3,0.9v4.5v4.5h-5.3h-5.3l0-4.8l0-4.8l0.4-0.8c0.4-0.9,0.6-1.1,1.6-1.5
		C213.7,15.1,214.4,14.9,215.5,14.9L215.5,14.9z"/>
</g>
</svg>
