<?xml version="1.0" encoding="utf-8"?>
<!-- Generator: Adobe Illustrator 26.0.2, SVG Export Plug-In . SVG Version: 6.00 Build 0)  -->
<svg version="1.1" xmlns="http://www.w3.org/2000/svg" xmlns:xlink="http://www.w3.org/1999/xlink" x="0px" y="0px"
	 viewBox="0 0 168.6 168.8" style="enable-background:new 0 0 168.6 168.8;" xml:space="preserve">
<style type="text/css">
	.st0{fill:#FFFFFF;}
	.st1{fill:#333333;}
	.st2{fill:#CE4040;}
	.st3{fill:#F5A623;}
</style>
<g id="Layer_4">
</g>
<g id="Layer_2">
	<path class="st0" d="M2.1,69.3l82.1,0c-5.1-2.5-10-5.5-14.5-9c-12.9-9.9-23.9-30.5-29.4-45.8"/>
	<g id="Layer_3">
		<path class="st0" d="M91.2,116c13.7,10.6,30.3,16.8,47.6,17.7h0"/>
		<path class="st0" d="M138.7,133.7c-9.2-33.1-39.3-56-73.7-56h-2.3c5.7,15.1,15.6,28.4,28.4,38.3"/>
	</g>
</g>
<g id="Layer_1">
	<g id="Layer_2_00000047034767126214590890000005755198204731431310_">
		<g id="Layer_1-2">
			<path class="st1" d="M167.9,72.9l0.6,4.8h-66.7c6.1,3,11.9,6.7,17.2,11c14.9,12.3,25.2,29.4,29.2,48.4l0.4,2.1l-1.4,1.6
				c-31.1,34.8-84.5,37.8-119.4,6.7S-10,63,21.1,28.1s84.5-37.8,119.4-6.7C155.5,34.8,165.2,53.1,167.9,72.9L167.9,72.9z
				 M127.5,69.3h31.3c-1.2-6-3.1-11.8-5.7-17.3c-2.3,2.2-4.8,4.3-7.4,6.3C140.1,62.6,134,66.3,127.5,69.3z M140.5,51.6
				c2.9-2.2,5.7-4.7,8.3-7.3c-3.9-6.3-8.8-12.1-14.4-17C110.8,6.5,76.8,2.5,48.9,17.2c4.8,14.4,13.9,27.1,25.9,36.4
				c9,7,19.5,11.8,30.6,14.1C118.2,65.1,130.2,59.6,140.5,51.6L140.5,51.6z M138.7,133.7c-9.2-33.1-39.3-56-73.7-56h-2.3
				c5.7,15.1,15.6,28.4,28.4,38.3C104.9,126.6,121.5,132.8,138.7,133.7L138.7,133.7z M9.9,69.3h74.3c-5.1-2.5-10-5.5-14.5-9
				C56.8,50.4,47,37,41.5,21.7C25.2,32.9,13.9,49.9,9.9,69.3z"/>
			<path class="st1" d="M134.2,141.8c-31.7,27.5-79.6,24.1-107.1-7.5C15,120.4,8.4,102.7,8.4,84.4c0-2.3,0.1-4.5,0.3-6.7h45.1
				c6.1,17.8,17.3,33.5,32.2,45C100,133.5,116.7,140.1,134.2,141.8z"/>
			<path class="st2" d="M158.8,69.3h-31.3c6.4-3,12.5-6.7,18.2-11c2.6-2,5-4.1,7.4-6.3C155.7,57.5,157.6,63.3,158.8,69.3z"/>
			<path class="st3" d="M134.5,27.3c5.6,4.9,10.4,10.7,14.4,17c-2.6,2.6-5.4,5-8.3,7.3c-10.3,8-22.3,13.5-35.1,16.1
				c-11.1-2.3-21.6-7.1-30.6-14.1c-12.1-9.3-21.1-22-25.9-36.4C76.8,2.5,110.9,6.5,134.5,27.3z"/>
			<circle class="st1" cx="35.6" cy="52" r="7.8"/>
		</g>
	</g>
</g>
</svg>
