<?xml version="1.0" encoding="utf-8"?>
<!-- Generator: Adobe Illustrator 21.0.0, SVG Export Plug-In . SVG Version: 6.00 Build 0)  -->
<svg version="1.1" id="Layer_1" xmlns="http://www.w3.org/2000/svg" xmlns:xlink="http://www.w3.org/1999/xlink" x="0px" y="0px"
	 viewBox="0 0 120 10" style="enable-background:new 0 0 120 10;" xml:space="preserve">
<style type="text/css">
	.st0{fill:#C12121;}
	.st1{fill:#181E41;}
</style>
<g transform="translate(0 0.1)">
	<g transform="translate(0 -0.1)">
		<g transform="translate(0 0)">
			<path class="st0" d="M13.1,0H4.6l1.2,2.2H12c0.3,0,0.5,0.2,0.5,0.5c0,0,0,0.1,0,0.1v4.5c0,0.3-0.2,0.5-0.4,0.6c0,0,0,0-0.1,0
				l-7.2,0V6h5.9V3.9l-6,0L2.5,0H0l2.8,4.9V10h10.4c0.9,0,1.5-0.8,1.5-2.5V2.2C14.7,0.8,14.1,0,13.1,0"/>
			<path class="st1" d="M43.4,6h-6.7v4h-2.1V2c-0.1-1,0.6-1.9,1.5-2c0.2,0,0.3,0,0.5,0h7.1c1.2,0,1.8,0.7,1.8,2.2V10h-2.1V6z
				 M43.4,3.8V2.8c0-0.3-0.2-0.6-0.5-0.6h-5.7c-0.3,0-0.5,0.2-0.5,0.5c0,0,0,0.1,0,0.1v1.1L43.4,3.8z"/>
			<path class="st1" d="M61,6v4h-2.1V0H61v3.8h3.7L66.9,0h2.4l-2.7,4.9l2.7,5.1h-2.4l-2.3-4L61,6z"/>
			<path class="st1" d="M109.7,10V0H120v2.2h-8.2v1.7h8.2V6h-8.2v1.8h8.2V10H109.7z"/>
			<path class="st1" d="M104.9,7.8c0.3,0,0.5-0.2,0.5-0.5c0,0,0,0,0-0.1V6.5c0-0.3-0.2-0.5-0.4-0.6c0,0,0,0-0.1,0h-6.7
				c-1,0-1.4-0.7-1.4-2.2V2.2c0-1.4,0.5-2.2,1.5-2.2h9.4l-1.3,2.2h-7.1c-0.3,0-0.5,0.2-0.5,0.5c0,0,0,0.1,0,0.1v0.5
				c0,0.3,0.2,0.5,0.4,0.6c0,0,0,0,0.1,0h6.5c1.1,0,1.6,0.7,1.6,2.2v1.3c0,1.7-0.5,2.5-1.6,2.5h-9.6l1.3-2.2L104.9,7.8z"/>
			<path class="st1" d="M57.3,2.2h-7.5c-0.3,0-0.5,0.2-0.5,0.5c0,0,0,0.1,0,0.1v4.5c0,0.3,0.2,0.5,0.4,0.6c0,0,0,0,0.1,0h7.5V10
				h-8.5c-1.1,0-1.6-0.8-1.6-2.5V2.2c0-1.4,0.5-2.2,1.6-2.2h8.5V2.2z"/>
			<path class="st1" d="M32.3,2c0-1.4-0.6-2-1.6-2h-9.1V10h9.1c1.1,0,1.6-0.5,1.6-1.9V6.3c0-0.5-0.1-0.9-0.3-1.3
				c0.2-0.4,0.3-0.8,0.3-1.3L32.3,2L32.3,2z M30.2,7.2c0,0.3-0.2,0.6-0.5,0.6h-5.9V6h5.9c0.3,0,0.5,0.3,0.5,0.6V7.2z M30.2,3.3
				c0,0.3-0.2,0.6-0.5,0.6h-5.9V2.2h5.9c0.3,0,0.5,0.3,0.5,0.6V3.3z"/>
			<path class="st1" d="M81.3,2c0-1.4-0.6-2-1.6-2h-9.1V10h9.1c1.1,0,1.6-0.5,1.6-1.9V6.3c0-0.5-0.1-0.9-0.3-1.3
				c0.2-0.4,0.3-0.8,0.3-1.3V2z M79.2,7.2c0,0.3-0.2,0.6-0.5,0.6h-5.9V6h5.9c0.3,0,0.5,0.3,0.5,0.6V7.2z M79.2,3.3
				c0,0.3-0.2,0.6-0.5,0.6h-5.9V2.2h5.9c0.3,0,0.5,0.3,0.5,0.6V3.3z"/>
			<path class="st1" d="M92.4,6h-6.7v4h-2.1V2c-0.1-1,0.6-1.9,1.5-2c0.2,0,0.3,0,0.5,0h7.1c1.2,0,1.8,0.7,1.8,2.2V10h-2.1L92.4,6z
				 M92.4,3.8V2.8c0-0.3-0.2-0.6-0.5-0.6h-5.7c-0.3,0-0.5,0.2-0.5,0.5c0,0,0,0.1,0,0.1v1.1L92.4,3.8z"/>
		</g>
	</g>
</g>
</svg>
