<?xml version="1.0" encoding="utf-8"?>
<!-- Generator: Adobe Illustrator 21.0.0, SVG Export Plug-In . SVG Version: 6.00 Build 0)  -->
<svg version="1.1" id="Layer_1" xmlns="http://www.w3.org/2000/svg" xmlns:xlink="http://www.w3.org/1999/xlink" x="0px" y="0px"
	 viewBox="0 0 80 60" style="enable-background:new 0 0 80 60;" xml:space="preserve">
<g>
	<g>
		<path d="M38.9,58C24.1,58,12,45.9,12,31.1C12,16.3,24.1,4.2,38.9,4.2c2.3,0,4.7,0.3,7,0.9c0.9,0.2,1.4,1.1,1.2,2
			c-0.2,0.7-0.8,1.2-1.6,1.2c-0.1,0-0.3,0-0.4-0.1c-2-0.5-4-0.8-6.1-0.8c-13,0-23.6,10.6-23.7,23.6c0,13,10.6,23.6,23.6,23.6
			c13,0,23.6-10.6,23.6-23.6c0-2.1-0.3-4.1-0.8-6.1c-0.2-0.9,0.3-1.8,1.2-2c0.1,0,0.3-0.1,0.4-0.1c0.7,0,1.4,0.5,1.6,1.2
			c0.6,2.3,0.9,4.6,0.9,7C65.8,45.9,53.7,58,38.9,58L38.9,58z"/>
	</g>
	<g>
		<path d="M38.9,42.7c-6.4,0-11.6-5.2-11.6-11.6c0-6.4,5.2-11.6,11.6-11.6c0.6,0,1.2,0,1.8,0.1c0.9,0.1,1.5,1,1.4,1.9
			c-0.1,0.8-0.8,1.4-1.6,1.4c-0.1,0-0.2,0-0.3,0c-0.4-0.1-0.9-0.1-1.3-0.1c-4.6,0-8.4,3.8-8.4,8.4c0,4.6,3.8,8.4,8.4,8.4
			c4.6,0,8.3-3.8,8.4-8.4c0-0.4,0-0.9-0.1-1.3c-0.1-0.4,0-0.9,0.3-1.2c0.2-0.3,0.6-0.5,0.9-0.6l0,0l0.1,0c0.1,0,0.2,0,0.3,0
			c0.8,0,1.5,0.6,1.6,1.4c0.1,0.6,0.1,1.2,0.1,1.8C50.5,37.5,45.3,42.7,38.9,42.7L38.9,42.7z"/>
	</g>
	<g>
		<path d="M40,31.6c-0.4,0-0.8-0.2-1.2-0.5c-0.6-0.6-0.6-1.7,0-2.3l7.5-7.5v-7.1c0-0.2,0.1-0.4,0.2-0.6L58.1,2.2
			C58.2,2.1,58.3,2,58.5,2c0.1,0,0.3,0.1,0.4,0.2C59,2.3,59,2.4,59,2.6V11h8.4c0.1,0,0.3,0.1,0.4,0.2c0.1,0.1,0.2,0.2,0.2,0.4
			c0,0.1-0.1,0.3-0.2,0.4L56.3,23.5c-0.1,0.1-0.3,0.2-0.6,0.2h-7.1l-7.5,7.5C40.8,31.5,40.4,31.6,40,31.6L40,31.6z"/>
	</g>
</g>
</svg>
