<?xml version="1.0" encoding="utf-8"?>
<!-- Generator: Adobe Illustrator 21.0.0, SVG Export Plug-In . SVG Version: 6.00 Build 0)  -->
<svg version="1.1" id="Layer_1" xmlns="http://www.w3.org/2000/svg" xmlns:xlink="http://www.w3.org/1999/xlink" x="0px" y="0px"
	 viewBox="0 0 80 60" style="enable-background:new 0 0 80 60;" xml:space="preserve">
<g>
	<path d="M9.9,51c-0.6,0-1.1-0.2-1.6-0.5C7.5,49.9,7,48.9,7,47.8V12.2c0-1.1,0.5-2.1,1.4-2.7C9.1,9,10.1,8.9,11,9.2
		c9.2,3.7,19.1,5.6,29,5.6c9.9,0,19.8-1.9,29-5.6c0.9-0.3,1.8-0.2,2.6,0.3c0.9,0.6,1.4,1.6,1.4,2.7v35.6c0,1.1-0.5,2.1-1.4,2.7
		c-0.8,0.5-1.7,0.6-2.6,0.3c-9.2-3.7-19.1-5.6-29-5.6c-9.9,0-19.8,1.9-29,5.6C10.6,50.9,10.3,51,9.9,51z M10.3,12.5v35
		c9.5-3.7,19.5-5.6,29.7-5.6c10.2,0,20.2,1.9,29.7,5.6v-35c-9.5,3.7-19.5,5.6-29.7,5.6C29.8,18.1,19.8,16.2,10.3,12.5z"/>
	<path d="M26.5,41.3c-0.9,0-1.6-0.7-1.6-1.6c0,0,0,0,0,0V20.2c0-0.9,0.7-1.6,1.6-1.6c0,0,0,0,0,0c0.9,0,1.6,0.7,1.6,1.6v19.5
		C28.1,40.6,27.4,41.3,26.5,41.3z"/>
	<path d="M53,41.3c-0.9,0-1.6-0.7-1.6-1.6l0,0V20.2c0-0.9,0.7-1.6,1.6-1.6l0,0c0.9,0,1.6,0.7,1.6,1.6c0,0,0,0,0,0v19.5
		C54.6,40.6,53.9,41.3,53,41.3C53,41.3,53,41.3,53,41.3z"/>
</g>
</svg>
