<?xml version="1.0" encoding="utf-8"?>
<!-- Generator: Adobe Illustrator 21.0.0, SVG Export Plug-In . SVG Version: 6.00 Build 0)  -->
<svg version="1.1" id="Layer_1" xmlns="http://www.w3.org/2000/svg" xmlns:xlink="http://www.w3.org/1999/xlink" x="0px" y="0px"
	 viewBox="0 0 80 60" style="enable-background:new 0 0 80 60;" xml:space="preserve">
<g transform="translate(-67.525 -181.035)">
	<path d="M90.8,225.8c-1.8-0.2-3.5-0.9-4.9-1.9c-0.2-0.2-0.4-0.2-0.4-0.3c0-0.1,1.9-2.6,2-2.6c0,0,0.1,0,0.3,0.1
		c0.8,0.5,1.6,0.8,2.5,1.1c0.8,0.2,1.7,0.2,2.5,0c1.1-0.3,2-1.1,2.5-2.2c0.3-0.8,0.5-1.7,0.6-2.5c0-0.4,0-0.4,0-0.4s-0.1,0-0.1,0.1
		c-0.5,0.4-1.1,0.8-1.7,0.9c-0.6,0.2-1.3,0.3-2,0.3c-3.6-0.1-6.6-2.8-7.2-6.2c0-0.3-0.1-1.3-0.1-4.4v-4h2h2c0,0,0.1,1.9,0.1,4
		c-0.1,1.4,0,2.8,0.1,4.2c0.3,1.3,1.4,2.4,2.8,2.7c0.6,0.1,1.1,0.1,1.7-0.1c1.1-0.3,2-1.2,2.4-2.3l0.2-0.4v-4v-4h2c0.7,0,1.3,0,2,0
		c0,0.1,0.1,9.3,0,11c0,1.2-0.1,2.4-0.3,3.6c-0.2,2.1-1,4.1-2.5,5.6c-1.1,1-2.5,1.6-4,1.8C92.4,225.8,91.6,225.9,90.8,225.8z
		 M107.3,218.4c0,0-0.3-0.1-0.6-0.1c-1.2-0.3-2.4-0.7-3.6-1.2c-0.5-0.2-1-0.6-1.4-0.9c0,0,1.8-2.4,1.9-2.6c0.1-0.1,0,0,0.4,0.2
		c0.9,0.5,1.8,0.8,2.8,1c0.8,0.1,1.7,0.1,2.5,0c0.7-0.2,1.1-0.5,1.1-0.9c0-0.5-0.4-0.7-2.7-1.4c-0.9-0.3-1.9-0.6-2.2-0.7
		c-2-0.7-3.1-1.7-3.4-3c-0.1-0.3-0.1-0.6-0.1-0.9c0-1.1,0.4-2.1,1.2-2.9c1-1,2.3-1.5,3.6-1.7c1.9-0.2,3.8,0.1,5.6,0.9
		c0.4,0.2,0.8,0.4,1.2,0.7l0.1,0.1l-1,1.2c-0.5,0.7-1,1.2-1,1.2c-0.2-0.1-0.4-0.1-0.6-0.2c-1-0.4-2-0.6-3-0.6c-1.2,0-2,0.2-2.2,0.7
		c-0.2,0.4,0,0.7,0.7,1c0.2,0.1,1.1,0.4,2,0.6c1.4,0.3,2.8,0.8,4.1,1.6c1.6,1,2.2,3,1.4,4.6c-0.2,0.5-0.5,1-0.9,1.4
		c-0.9,0.8-1.9,1.4-3.1,1.6c-0.5,0.1-1.1,0.2-1.6,0.2C108.1,218.5,107.7,218.5,107.3,218.4z M74.3,218.3c-2.2-0.2-4.2-1.4-5.5-3.3
		c-0.9-1.4-1.4-3.1-1.3-4.7c0.2-3.2,2.5-5.8,5.6-6.6c1.1-0.3,2.2-0.3,3.4-0.3h2.1v-3.7v-3.7h2c0.7-0.1,1.3,0,2,0c0,0,0,1.8,0,3.8
		c0,4.4,0,11.5-0.2,12.1c-0.2,1-0.5,1.9-1.1,2.8c-0.6,1-1.5,1.8-2.5,2.4c-0.7,0.4-1.4,0.7-2.1,0.9C76.1,218.4,75.2,218.4,74.3,218.3
		L74.3,218.3z M75.8,214.4c1.2-0.3,2.2-1.1,2.7-2.3c0.2-0.9,0.3-1.9,0.2-2.8v-1.9h-2c-2.3,0-2.3,0-3,0.3c-1,0.4-1.7,1.3-2,2.3
		c-0.1,0.3-0.1,0.6-0.1,0.9c0,0.6,0.1,1.1,0.4,1.6c0.2,0.3,0.4,0.7,0.7,0.9c0.4,0.4,0.9,0.7,1.4,0.9
		C74.6,214.5,75.2,214.6,75.8,214.4z M122.3,218.3c-1-0.1-1.9-0.4-2.7-0.8c-2.2-1.1-3.7-3.2-4.1-5.5c-0.1-0.7-0.1-1.5,0-2.2
		c0.2-1.6,1-3.1,2.2-4.2c1.1-1.1,2.6-1.8,4.2-2c4-0.6,7.7,2,8.5,5.8c0.1,0.8,0.2,1.7,0.1,2.5c-0.3,2.2-1.6,4.2-3.5,5.3
		c-0.9,0.5-1.8,0.9-2.8,1C123.6,218.4,123,218.4,122.3,218.3z M124.1,214.4c0.6-0.2,1.2-0.5,1.6-1c1.3-1.4,1.3-3.7-0.2-4.9
		c-0.1,0-0.1-0.1-0.2-0.1c-0.4-0.3-1-0.6-1.5-0.7c-0.6-0.1-1.1-0.1-1.7,0c-1,0.3-1.8,0.9-2.3,1.8c-0.3,0.5-0.4,1.1-0.4,1.6
		c0,0.3,0,0.7,0.1,1c0.2,0.8,0.8,1.6,1.5,2c0.4,0.3,0.9,0.4,1.4,0.5c0.2,0,0.5,0,0.7,0C123.4,214.5,123.8,214.5,124.1,214.4
		L124.1,214.4z M132.2,218.1c0-0.2,0-7.2,0-7.7c0.2-2.6,1.8-4.8,4.1-6c2.1-1.1,4.6-1.1,6.8,0c2,1,3.5,2.7,4.1,4.7
		c0.2,0.9,0.2,0.8,0.3,5c0,2.3,0,4,0,4h-4.1c0,0,0-1.5,0-3.8c0-4.1,0-4-0.2-4.6c-0.4-1-1.3-1.8-2.4-2.1c-0.6-0.1-1.2-0.1-1.8,0
		c-1.3,0.3-2.3,1.3-2.6,2.6c-0.1,1.4-0.1,2.8-0.1,4.1v4c0,0-1.1,0-2.1,0C132.3,218.1,133.2,218.1,132.2,218.1L132.2,218.1z"/>
</g>
</svg>
