<?xml version="1.0" encoding="utf-8"?>
<!-- Generator: Adobe Illustrator 21.0.0, SVG Export Plug-In . SVG Version: 6.00 Build 0)  -->
<svg version="1.1" id="Layer_1" xmlns="http://www.w3.org/2000/svg" xmlns:xlink="http://www.w3.org/1999/xlink" x="0px" y="0px"
	 viewBox="0 0 150 20" style="enable-background:new 0 0 150 20;" xml:space="preserve">
<style type="text/css">
	.st0{fill:#FFFFFF;}
	.st1{clip-path:url(#SVGID_2_);}
	.st2{fill:url(#SVGID_3_);}
	.st3{clip-path:url(#SVGID_5_);}
	.st4{fill:url(#SVGID_6_);}
	.st5{clip-path:url(#SVGID_8_);}
	.st6{fill:url(#SVGID_9_);}
	.st7{clip-path:url(#SVGID_11_);}
	.st8{fill:url(#SVGID_12_);}
</style>
<g>
	<g>
		<path class="st0" d="M144.5,19.9h-12.2l-5.3-9.2l0,0l0,0l0.2-0.3l5.9-10.3h10.7l6.1,10.5l0,0l0,0l-2.4,4.1L144.5,19.9L144.5,19.9
			L144.5,19.9z M138.5,1.7C138.4,1.7,138.4,1.7,138.5,1.7c-0.5,0.5-0.9,1.1-1.2,1.7L134.6,8l-2.7,4.6c-0.3,0.6-0.6,1.2-0.9,1.8
			c0,0,0,0.1,0,0.1c0,0,0,0,0.1,0c0.7,0.1,1.3,0.2,2,0.2h10.6c0.7,0,1.3,0,2-0.2c0,0,0.1,0,0.1,0c0,0,0-0.1,0-0.1
			c-0.2-0.6-0.5-1.2-0.9-1.8L142.3,8l-2.7-4.6C139.3,2.8,139,2.2,138.5,1.7C138.5,1.7,138.5,1.7,138.5,1.7"/>
	</g>
	<g>
		<path d="M5.3,16.5c1.5,0.1,2.9-0.6,3.9-1.7l-1.4-1.5c-0.6,0.6-1.4,1-2.3,1c-1.6-0.1-2.9-1.5-2.9-3.1c0-0.1,0-0.1,0-0.2
			c-0.2-1.6,1-3.1,2.7-3.3c0,0,0.1,0,0.1,0C6.2,7.7,7,8,7.6,8.6L9,7.1c-0.9-1-2.3-1.6-3.7-1.6C2.4,5.5,0,8,0,11c0,0,0,0,0,0
			c-0.1,2.9,2.1,5.3,5,5.5C5.1,16.5,5.2,16.5,5.3,16.5"/>
	</g>
	<g>
		<path d="M15.5,14.4c-1.7,0-3-1.4-3-3.1c0-0.1,0-0.2,0-0.3c-0.2-1.7,1-3.1,2.7-3.3s3.1,1,3.3,2.7c0,0.2,0,0.4,0,0.6
			c0.1,1.7-1.1,3.2-2.8,3.3C15.6,14.4,15.6,14.4,15.5,14.4 M15.5,16.5c3,0,5.5-2.4,5.6-5.5c0,0,0-0.1,0-0.1c0.1-2.9-2.2-5.4-5.1-5.5
			c-0.1,0-0.2,0-0.4,0c-3,0-5.5,2.4-5.6,5.5c0,0,0,0.1,0,0.1c-0.1,2.9,2.2,5.4,5.1,5.5C15.2,16.5,15.3,16.5,15.5,16.5"/>
	</g>
	<g>
		<path d="M29.9,16.3l1.8-5.8c0.3-1,0.6-2.2,0.6-2.2h0c0,0,0,1.2,0.1,2.3l0.5,5.7h2.4l-1-10.7h-3.1L29.5,11c-0.3,0.9-0.5,2-0.5,2
			s-0.3-1.1-0.6-2l-1.6-5.3h-3.2l-1,10.7h2.2l0.5-5.7c0.1-1.1,0.1-2.3,0.1-2.3h0c0,0,0.3,1.2,0.6,2.2l1.8,5.8L29.9,16.3z"/>
	</g>
	<g>
		<path d="M44.7,16.3l1.8-5.8c0.3-1,0.6-2.2,0.6-2.2h0c0,0,0,1.2,0.1,2.3l0.5,5.7h2.4L49,5.7H46L44.3,11c-0.3,0.9-0.5,2-0.5,2
			s-0.3-1.1-0.6-2l-1.6-5.3h-3.2l-1,10.7h2.2l0.5-5.7c0.1-1.1,0.1-2.3,0.1-2.3h0c0,0,0.3,1.2,0.6,2.2l1.8,5.8L44.7,16.3z"/>
	</g>
	<g>
		<path d="M52.6,16.3h6.9v-2h-4.6V12h3.9v-2h-3.9V7.7h4.5v-2h-6.9V16.3z"/>
	</g>
	<g>
		<path d="M67.5,9.1c0,1-0.7,1.4-2,1.4h-1V7.7h1C66.8,7.7,67.5,8.1,67.5,9.1 M70.4,16.3l-2.6-4.3c1.3-0.4,2.2-1.6,2.2-3
			c0-2.2-1.2-3.4-4.4-3.4h-3.2v10.7h2.3v-3.9h0.7l2.3,3.9L70.4,16.3L70.4,16.3z"/>
	</g>
	<g>
		<path d="M71.7,16.3h7.4v-2h-4.5l4.4-6.9V5.7h-7.2v2h4.3l-4.4,6.9L71.7,16.3z"/>
	</g>
	<g>
		<path d="M83.9,12h1.7c1,0,1.7,0.3,1.7,1.2c0,0.8-0.5,1.2-1.7,1.2h-1.7V12z M83.9,7.7h1.3c0.7,0,1.5,0.2,1.5,1.1
			c0,0.9-0.6,1.2-1.4,1.2h-1.4L83.9,7.7L83.9,7.7z M81.6,16.3h4.1c1.9,0,4-0.9,4-3.1c0-1.3-1-2.4-2.3-2.5v0c1.1-0.3,1.8-1.3,1.8-2.4
			c0-2.3-2-2.7-3.9-2.7h-3.7L81.6,16.3L81.6,16.3z"/>
	</g>
	<g>
		<path d="M92.8,16.3l0.7-2.2h4.1l0.7,2.2h2.5L97.1,5.7h-2.9l-3.8,10.7H92.8z M97,12.2h-2.8l0.9-2.8c0.3-0.8,0.5-1.5,0.5-1.5
			s0.2,0.7,0.5,1.5L97,12.2z"/>
	</g>
	<g>
		<path d="M102.3,16.3h2.2v-5.1c0-1-0.1-1.9-0.1-1.9s0.5,0.9,1.1,1.7l3.6,5.3h2.1V5.7H109v4.8c0,1,0.1,1.9,0.1,1.9s-0.5-0.9-1.1-1.7
			l-3.5-5.1h-2.2V16.3z"/>
	</g>
	<g>
		<path d="M113.7,5.7v10.7h2.3v-5l3.4,5h2.9l-3.9-5.7l3.5-4.9h-2.7l-3.2,4.8V5.7H113.7z"/>
	</g>
	<g transform="translate(107.181 0.301)">
		<g>
			<defs>
				<path id="SVGID_1_" d="M34.4-0.3c-1.3,0-2.4,0.7-3.1,1.8l0.1,0.1c0.4-0.5,0.8-0.9,1.3-1.2c0.4-0.3,0.9-0.5,1.4-0.5
					c0.3,0,1.4,0,2.6,0c0,0,0,0,0,0l0-0.1c0,0,0,0,0,0L34.4-0.3L34.4-0.3z"/>
			</defs>
			<clipPath id="SVGID_2_">
				<use xlink:href="#SVGID_1_"  style="overflow:visible;"/>
			</clipPath>
			<g class="st1">
				
					<radialGradient id="SVGID_3_" cx="-270.2476" cy="693.5217" r="12.9216" gradientTransform="matrix(1.3904 0 0 1.39 310.6884 -727.0403)" gradientUnits="userSpaceOnUse">
					<stop  offset="0" style="stop-color:#FFDF4F"/>
					<stop  offset="0.137" style="stop-color:#FFD137"/>
					<stop  offset="0.322" style="stop-color:#FFC31A"/>
					<stop  offset="0.44" style="stop-color:#FEBE10"/>
					<stop  offset="0.609" style="stop-color:#FCBA12"/>
					<stop  offset="0.754" style="stop-color:#F5AF15"/>
					<stop  offset="0.891" style="stop-color:#ED9F18"/>
					<stop  offset="0.9" style="stop-color:#ED9D19"/>
					<stop  offset="1" style="stop-color:#E0861A"/>
				</radialGradient>
				<rect x="31.2" y="-0.3" class="st2" width="5.5" height="1.8"/>
			</g>
		</g>
	</g>
	<g transform="translate(98.396 0.301)">
		<g>
			<defs>
				<path id="SVGID_4_" d="M34.7-0.3C34.7-0.3,34.7-0.3,34.7-0.3l-4.5,7.9L28.7,10l-0.2,0.3l0,0c0,0,0,0,0,0l4.3,7.5v0
					c-0.1-0.2-0.2-0.3-0.2-0.4c-0.2-0.5-0.3-1-0.3-1.5c0.1-1.3,0.6-2.5,1.2-3.5l2.7-4.6c0,0,1.8-3,2.7-4.6C39.5,2,40.4,1,41.4,0.3
					c0.4-0.3,0.9-0.5,1.4-0.5c0.3,0,1.4,0,2.6,0L34.7-0.3L34.7-0.3z"/>
			</defs>
			<clipPath id="SVGID_5_">
				<use xlink:href="#SVGID_4_"  style="overflow:visible;"/>
			</clipPath>
			<g class="st3">
				
					<radialGradient id="SVGID_6_" cx="-658.1386" cy="425.8679" r="1.2919" gradientTransform="matrix(13.8201 0 0 13.818 9148.9541 -5628.8965)" gradientUnits="userSpaceOnUse">
					<stop  offset="0" style="stop-color:#FFDF4F"/>
					<stop  offset="0.137" style="stop-color:#FFD137"/>
					<stop  offset="0.322" style="stop-color:#FFC31A"/>
					<stop  offset="0.44" style="stop-color:#FEBE10"/>
					<stop  offset="0.609" style="stop-color:#FCBA12"/>
					<stop  offset="0.754" style="stop-color:#F5AF15"/>
					<stop  offset="0.891" style="stop-color:#ED9F18"/>
					<stop  offset="0.9" style="stop-color:#ED9D19"/>
					<stop  offset="1" style="stop-color:#E0861A"/>
				</radialGradient>
				<rect x="28.5" y="-0.3" class="st4" width="16.9" height="18.1"/>
			</g>
		</g>
	</g>
	<g transform="translate(98.425 8.467)">
		<g>
			<defs>
				<path id="SVGID_7_" d="M50.2,4.4c-0.3,0.4-0.7,0.7-1.2,1c-1.2,0.5-2.4,0.8-3.7,0.7H34.7c-1.3,0-2.5-0.2-3.7-0.7
					c-0.5-0.2-0.9-0.6-1.2-1c-0.2-0.2-0.6-1-1.1-1.8l1.1,1.9l4.1,7.1c0,0,0,0,0,0h12.3c0,0,0,0,0,0l5.3-9.3
					C50.9,3.3,50.4,4.2,50.2,4.4 M28.5,2.2l0.2,0.4L28.5,2.2z"/>
			</defs>
			<clipPath id="SVGID_8_">
				<use xlink:href="#SVGID_7_"  style="overflow:visible;"/>
			</clipPath>
			<g class="st5">
				
					<radialGradient id="SVGID_9_" cx="-618.3966" cy="446.8531" r="2.5169" gradientTransform="matrix(7.0849 0 0 7.083 4328.5034 -2931.0613)" gradientUnits="userSpaceOnUse">
					<stop  offset="0" style="stop-color:#FFDF4F"/>
					<stop  offset="0.137" style="stop-color:#FFD137"/>
					<stop  offset="0.322" style="stop-color:#FFC31A"/>
					<stop  offset="0.44" style="stop-color:#FEBE10"/>
					<stop  offset="0.609" style="stop-color:#FCBA12"/>
					<stop  offset="0.754" style="stop-color:#F5AF15"/>
					<stop  offset="0.891" style="stop-color:#ED9F18"/>
					<stop  offset="0.9" style="stop-color:#ED9D19"/>
					<stop  offset="1" style="stop-color:#E0861A"/>
				</radialGradient>
				<rect x="28.5" y="2.2" class="st6" width="23" height="9.3"/>
			</g>
		</g>
	</g>
	<g transform="translate(107.198 0.301)">
		<g>
			<defs>
				<path id="SVGID_10_" d="M34-0.3c-0.5,0.1-1,0.3-1.4,0.5c-0.5,0.3-0.9,0.7-1.3,1.2c0.4,0.5,0.8,1.1,1.1,1.6
					C33.3,4.7,35,7.7,35,7.7l2.7,4.6c0.7,1.1,1.1,2.3,1.2,3.5c0,0.5-0.1,1-0.3,1.5c-0.1,0.3-0.6,1.2-1.2,2.2l5.3-9.2v0l0,0L36.7-0.3
					c0,0,0,0,0,0C35.4-0.3,34.4-0.3,34-0.3"/>
			</defs>
			<clipPath id="SVGID_11_">
				<use xlink:href="#SVGID_10_"  style="overflow:visible;"/>
			</clipPath>
			<g class="st7">
				
					<radialGradient id="SVGID_12_" cx="-669.5207" cy="421.9406" r="1.1804" gradientTransform="matrix(15.1394 0 0 15.141 10287.0381 -6151.4341)" gradientUnits="userSpaceOnUse">
					<stop  offset="0" style="stop-color:#FFDF4F"/>
					<stop  offset="0.137" style="stop-color:#FFD137"/>
					<stop  offset="0.322" style="stop-color:#FFC31A"/>
					<stop  offset="0.44" style="stop-color:#FEBE10"/>
					<stop  offset="0.609" style="stop-color:#FCBA12"/>
					<stop  offset="0.754" style="stop-color:#F5AF15"/>
					<stop  offset="0.891" style="stop-color:#ED9F18"/>
					<stop  offset="0.9" style="stop-color:#ED9D19"/>
					<stop  offset="1" style="stop-color:#E0861A"/>
				</radialGradient>
				<rect x="31.3" y="-0.3" class="st8" width="11.5" height="19.9"/>
			</g>
		</g>
	</g>
</g>
<g>
	<text transform="matrix(1 0 0 1 700 384.78)" style="font-family:'MyriadPro-Regular'; font-size:12px;">EB4034</text>
</g>
</svg>
