<?xml version="1.0" encoding="utf-8"?>
<!-- Generator: Adobe Illustrator 21.0.0, SVG Export Plug-In . SVG Version: 6.00 Build 0)  -->
<svg version="1.1" id="Layer_1" xmlns="http://www.w3.org/2000/svg" xmlns:xlink="http://www.w3.org/1999/xlink" x="0px" y="0px"
	 viewBox="0 0 80 60" style="enable-background:new 0 0 80 60;" xml:space="preserve">
<path d="M12.7,37.2c-5.4,0-9.7-4.3-9.7-9.7h5.2c0,2.5,2,4.5,4.5,4.5c2.5,0,4.5-2,4.5-4.5V9.8h5.2v17.7C22.4,32.9,18,37.2,12.7,37.2z
	 M56.2,23.1C56.1,14.8,49.4,8,41.1,8C32.7,8,26,14.8,25.9,23.1c0,8.3,6.8,15.1,15.1,15.1C49.4,38.2,56.1,31.4,56.2,23.1L56.2,23.1z
	 M50.9,23.1c0,5.4-4.4,9.9-9.9,9.9c-5.5,0-9.9-4.4-9.9-9.9c0-5.4,4.4-9.9,9.9-9.9C46.5,13.2,50.9,17.6,50.9,23.1L50.9,23.1z M77,32
	H65.5V9.8h-5.2v27.4H77V32z M59,51.6c1.2-0.8,1.5-2.4,0.7-3.6c0,0,0,0,0,0l-6-9c-0.8-1.2-2.4-1.5-3.6-0.7c0,0,0,0,0,0
	c-1.2,0.8-1.5,2.4-0.7,3.6c0,0,0,0,0,0l6,9c0.5,0.7,1.3,1.2,2.2,1.2C58.1,52,58.6,51.8,59,51.6L59,51.6z"/>
</svg>
