<?xml version="1.0" encoding="utf-8"?>
<!-- Generator: Adobe Illustrator 21.0.0, SVG Export Plug-In . SVG Version: 6.00 Build 0)  -->
<svg version="1.1" id="Layer_1" xmlns="http://www.w3.org/2000/svg" xmlns:xlink="http://www.w3.org/1999/xlink" x="0px" y="0px"
	 viewBox="0 0 150 23" style="enable-background:new 0 0 150 23;" xml:space="preserve">
<style type="text/css">
	.st0{fill:#1A1A1A;}
</style>
<g transform="translate(-2.013 -1.852)">
	<path class="st0" d="M12,18c0.2,0.5,0.2,1.1,0,1.6c-0.2,1-1.1,1.6-2.1,1.4c-1.1,0.1-2-0.6-2.1-1.7c0-0.1,0-0.2,0-0.3V17H2v1.7
		c0,4.8,3.8,6.2,7.8,6.2c3.9,0,7.1-1.3,7.6-4.9c0.2-1.2,0.2-2.4,0-3.5c-0.9-4.5-9-5.8-9.6-8.3C7.6,7.7,7.6,7.3,7.7,7
		c0.2-0.9,1-1.6,2-1.4c1-0.1,1.9,0.6,2,1.6c0,0.1,0,0.2,0,0.3v1.3H17V7.3c0-4.7-4.2-5.4-7.2-5.4c-3.8,0-6.9,1.3-7.5,4.8
		c-0.2,1-0.2,1.9,0.1,2.9C3.2,13.9,10.9,15.2,12,18"/>
	<path class="st0" d="M25,2.6L21,24h5.8l2.9-19.4h0.1L32.7,24h5.8l-4-21.4L25,2.6z M57.4,2.6L54.7,19h-0.1L51.9,2.6h-8.7L42.7,24
		h5.4l0.1-19.3h0.1L51.9,24h5.4L61,4.7h0.1L61.2,24h5.4L66.1,2.6L57.4,2.6z"/>
	<path class="st0" d="M81.7,17.9c0.2,0.5,0.2,1.1,0,1.6c-0.2,1-1.1,1.6-2.1,1.4c-1.1,0.1-2-0.6-2.1-1.7c0-0.1,0-0.2,0-0.3v-2.1h-5.8
		v1.7c0,4.8,3.8,6.2,7.8,6.2c3.9,0,7.1-1.3,7.6-4.9c0.2-1.2,0.2-2.4,0-3.5c-0.9-4.5-9-5.8-9.6-8.3c-0.1-0.4-0.1-0.8,0-1.1
		c0.2-0.9,1-1.6,2-1.4c1-0.1,1.9,0.6,2,1.6c0,0.1,0,0.2,0,0.3v1.3h5.3V7.3c0-4.7-4.2-5.4-7.2-5.4c-3.8,0-6.9,1.3-7.5,4.8
		c-0.2,1-0.2,1.9,0.1,2.9C72.9,13.9,80.6,15.1,81.7,17.9"/>
	<path class="st0" d="M99.7,20.8c1,0.1,1.9-0.6,2.1-1.6c0-0.3,0.1-0.5,0.1-0.8V2.6h5.4v15.4c0,0.5,0,0.9-0.1,1.4
		c-0.4,4-3.5,5.3-7.5,5.3c-3.9,0-7.1-1.3-7.5-5.3c0-0.2-0.1-1-0.1-1.4V2.6h5.4v15.9c0,0.3,0,0.6,0.1,0.8
		C97.8,20.2,98.7,20.9,99.7,20.8 M125.9,2.6l0.3,16.8h-0.1l-4.9-16.8h-8v21.2h5.3l-0.3-17.4h0.1l5.3,17.4h7.6V2.6L125.9,2.6z
		 M144.4,20.6c1,0.1,2-0.6,2.2-1.6c0-0.3,0.1-0.5,0.1-0.8v-3.1h-2.2V12h7.6v5.7c0,0.5,0,0.9-0.1,1.4c-0.4,3.9-3.7,5.3-7.5,5.3
		c-3.8,0-7.2-1.4-7.5-5.3c-0.1-0.7-0.1-1-0.1-1.4v-9c0-0.4,0.1-1.1,0.1-1.4c0.5-4,3.7-5.3,7.5-5.3c3.8,0,7.1,1.3,7.5,5.3
		c0,0.5,0.1,0.9,0.1,1.4v0.7h-5.4V8.2c0-0.3,0-0.5-0.1-0.8c-0.2-1-1.1-1.7-2.1-1.6c-1-0.1-1.9,0.6-2.1,1.6c-0.1,0.3-0.1,0.7-0.1,1
		v9.8c0,0.3,0,0.5,0.1,0.8C142.4,20,143.4,20.7,144.4,20.6"/>
</g>
</svg>
